<svg xmlns="http://www.w3.org/2000/svg" xmlns:xlink="http://www.w3.org/1999/xlink" version="1.1" id="Calque_1" x="0px" y="0px" style="enable-background:new 0 0 595.28 841.89;" xml:space="preserve" viewBox="171 385.89 227.44 71.66">
<style type="text/css">
	.st0{fill:#C00D0D;}
</style>
<g>
	<path class="st0" d="M382.65,399.09v-6.15h13.09c-2.86-4.25-7.72-7.05-13.24-7.05c-8.81,0-15.95,7.14-15.95,15.94   c0,4.91,2.22,9.29,5.7,12.22v-11.07h6.5v14.34c1.2,0.3,2.45,0.45,3.74,0.45c1.43,0,2.8-0.2,4.12-0.55v-14.25h6.5v10.72   c3.26-2.91,5.33-7.15,5.33-11.87c0-0.94-0.1-1.85-0.25-2.74H382.65L382.65,399.09z M378.95,395.91c0,1.91-1.55,3.46-3.46,3.46   c-1.91,0-3.46-1.55-3.46-3.46c0-1.92,1.55-3.46,3.46-3.46C377.4,392.45,378.95,393.99,378.95,395.91L378.95,395.91z"/>
	<path d="M358.14,407.33v-8.31h-29.67v8.31H358.14L358.14,407.33z M285.78,407.33h37.14v-8.31h-37.14V407.33L285.78,407.33z    M289.24,433.05l-15.51-34.03h-8.8l-15.56,34.03h9.29l10.65-25.13l10.65,25.13H289.24L289.24,433.05z M246.17,433.05l-7.29-12.64   c3.35-1.94,5.15-5.35,5.15-9.82c0-7.15-4.57-11.57-12.54-11.57h-23.23v8.06H231c2.97,0,4.62,0.88,4.62,3.51   c0,2.58-1.65,3.46-4.62,3.46h-14.01v8.06h13.87l6.03,10.94H246.17L246.17,433.05z M188.94,433.05h19.15v-7.83h-19.15   c-4.96,0-8.75-1.84-8.75-9.18c0-7.29,3.79-9.18,8.75-9.18h11.5v-7.83h-11.5c-12.06,0-17.94,6.13-17.94,17.02   C171,426.97,176.88,433.05,188.94,433.05L188.94,433.05z M319.37,414.06h-22.22v18.98h8.8v-10.96h13.42V414.06L319.37,414.06z    M347.39,414.05h-8.8v19h8.8V414.05L347.39,414.05z"/>
	<path d="M221.86,457.45h0.84v-6.16l2.77,4.07h0.04l2.77-4.08v6.17h0.86v-7.61h-0.87l-2.77,4.15l-2.77-4.15h-0.87V457.45   L221.86,457.45z M235.29,457.45h0.88l0.9-2.01h4.14l0.89,2.01h0.92l-3.47-7.67h-0.81L235.29,457.45L235.29,457.45z M237.41,454.65   l1.74-3.87l1.73,3.87H237.41L237.41,454.65z M249.18,457.45h0.86v-2.05l1.62-1.64l2.93,3.69h1.08l-3.4-4.29l3.26-3.33h-1.11   l-4.37,4.55v-4.55h-0.86V457.45L249.18,457.45z M261.72,457.45h5.56v-0.78h-4.7V454h4.15v-0.78h-4.15v-2.6h4.64v-0.78h-5.5V457.45   L261.72,457.45z M276.33,457.55c1.51,0,2.6-0.85,2.6-2.15v-0.02c0-1.16-0.78-1.78-2.48-2.15c-1.67-0.36-2.07-0.76-2.07-1.48v-0.02   c0-0.69,0.63-1.23,1.62-1.23c0.78,0,1.49,0.25,2.2,0.83l0.5-0.66c-0.77-0.62-1.57-0.94-2.68-0.94c-1.45,0-2.5,0.88-2.5,2.08v0.02   c0,1.25,0.81,1.82,2.56,2.2c1.6,0.34,1.98,0.74,1.98,1.45v0.02c0,0.75-0.67,1.29-1.7,1.29c-1.05,0-1.82-0.36-2.61-1.08l-0.53,0.63   C274.13,457.15,275.12,457.55,276.33,457.55L276.33,457.55z M295.91,457.55c1.51,0,2.6-0.85,2.6-2.15v-0.02   c0-1.16-0.78-1.78-2.48-2.15c-1.68-0.36-2.07-0.76-2.07-1.48v-0.02c0-0.69,0.63-1.23,1.62-1.23c0.78,0,1.49,0.25,2.2,0.83l0.5-0.66   c-0.77-0.62-1.57-0.94-2.68-0.94c-1.45,0-2.5,0.88-2.5,2.08v0.02c0,1.25,0.81,1.82,2.56,2.2c1.6,0.34,1.98,0.74,1.98,1.45v0.02   c0,0.75-0.67,1.29-1.7,1.29c-1.05,0-1.82-0.36-2.61-1.08l-0.53,0.63C293.71,457.15,294.7,457.55,295.91,457.55L295.91,457.55z    M304.99,457.45h5.56v-0.78h-4.7V454H310v-0.78h-4.15v-2.6h4.64v-0.78h-5.5V457.45L304.99,457.45z M316.86,457.45h0.84v-6.24   l4.92,6.24h0.69v-7.61h-0.84v6.1l-4.8-6.1h-0.81V457.45L316.86,457.45z M332.77,457.55c1.51,0,2.6-0.85,2.6-2.15v-0.02   c0-1.16-0.78-1.78-2.48-2.15c-1.67-0.36-2.07-0.76-2.07-1.48v-0.02c0-0.69,0.63-1.23,1.62-1.23c0.78,0,1.49,0.25,2.2,0.83l0.5-0.66   c-0.77-0.62-1.57-0.94-2.68-0.94c-1.45,0-2.5,0.88-2.5,2.08v0.02c0,1.25,0.8,1.82,2.56,2.2c1.6,0.34,1.98,0.74,1.98,1.45v0.02   c0,0.75-0.67,1.29-1.7,1.29c-1.05,0-1.82-0.36-2.61-1.08l-0.53,0.63C330.58,457.15,331.56,457.55,332.77,457.55L332.77,457.55z    M341.86,457.45h5.56v-0.78h-4.7V454h4.15v-0.78h-4.15v-2.6h4.64v-0.78h-5.5V457.45L341.86,457.45z"/>
	<path class="st0" d="M193.59,457.45h2.11v-7.61h-2.11V457.45L193.59,457.45z M203.52,457.45h2.11v-5.76h2.28v-1.85h-6.67v1.85h2.27   V457.45L203.52,457.45z"/>
</g>
</svg>