<svg xmlns="http://www.w3.org/2000/svg" xmlns:xlink="http://www.w3.org/1999/xlink" version="1.1" id="Calque_1" x="0px" y="0px" style="enable-background:new 0 0 595.28 841.89;" xml:space="preserve" viewBox="129 386.89 336.79 69.81">
<style type="text/css">
	.st0{fill:#FFFFFF;}
</style>
<g>
	<path class="st0" d="M442.39,406.44v-9.11h19.38c-4.24-6.3-11.43-10.44-19.6-10.44c-13.04,0-23.61,10.58-23.61,23.61   c0,7.27,3.29,13.75,8.44,18.09V412.2h9.63v21.23c1.78,0.44,3.63,0.67,5.54,0.67c2.11,0,4.15-0.3,6.1-0.81V412.2h9.63v15.88   c4.83-4.31,7.89-10.59,7.89-17.58c0-1.39-0.14-2.73-0.38-4.06H442.39L442.39,406.44z M436.91,401.73c0,2.83-2.29,5.12-5.12,5.12   c-2.83,0-5.12-2.3-5.12-5.12c0-2.84,2.29-5.12,5.12-5.12C434.61,396.61,436.91,398.89,436.91,401.73L436.91,401.73z"/>
	<path class="st0" d="M406.1,418.62v-12.31h-43.93v12.31H406.1L406.1,418.62z M298.95,418.62h55v-12.31h-55V418.62L298.95,418.62z    M304.08,456.7l-22.96-50.39h-13.03l-23.04,50.39h13.75l15.77-37.22l15.76,37.22H304.08L304.08,456.7z M240.3,456.7l-10.8-18.72   c4.97-2.88,7.63-7.92,7.63-14.54c0-10.58-6.77-17.13-18.57-17.13h-34.4v11.94h33.68c4.39,0,6.84,1.31,6.84,5.19   c0,3.82-2.45,5.12-6.84,5.12h-20.75v11.94h20.54l8.93,16.2H240.3L240.3,456.7z M155.56,456.7h28.36v-11.6h-28.36   c-7.34,0-12.96-2.72-12.96-13.59c0-10.8,5.61-13.59,12.96-13.59h17.02v-11.6h-17.02c-17.85,0-26.56,9.07-26.56,25.19   C129,447.7,137.71,456.7,155.56,456.7L155.56,456.7z M348.69,428.59h-32.9v28.11h13.03v-16.23h19.87V428.59L348.69,428.59z    M390.18,428.57h-13.03v28.13h13.03V428.57L390.18,428.57z"/>
</g>
</svg>