<svg xmlns="http://www.w3.org/2000/svg" xmlns:xlink="http://www.w3.org/1999/xlink" version="1.1" id="Calque_1" x="0px" y="0px" style="enable-background:new 0 0 595.28 841.89;" xml:space="preserve" viewBox="171 385.89 251.79 70.89">
<style type="text/css">
	.st0{fill:#0067B2;}
	.st1{fill:#FFFFFF;}
</style>
<g>
	<path d="M364.76,456.65h0.86v-2.67h1.86c1.62,0,3-0.84,3-2.47v-0.02c0-1.49-1.14-2.4-2.86-2.4h-2.86V456.65L364.76,456.65z    M365.62,453.2v-3.33h1.93c1.23,0,2.05,0.56,2.05,1.64v0.02c0,0.99-0.83,1.66-2.09,1.66H365.62L365.62,453.2z M371.67,456.65h0.88   l0.91-2h4.16l0.89,2h0.93l-3.48-7.62h-0.81L371.67,456.65L371.67,456.65z M373.8,453.87l1.75-3.85l1.73,3.85H373.8L373.8,453.87z    M381.9,456.65h0.86v-2.94h2.18l2.22,2.94h1.06l-2.35-3.09c1.2-0.22,2.07-0.95,2.07-2.2v-0.02c0-0.59-0.22-1.12-0.59-1.49   c-0.48-0.48-1.23-0.76-2.17-0.76h-3.28V456.65L381.9,456.65z M382.76,452.94v-3.07h2.36c1.23,0,1.95,0.56,1.95,1.49v0.02   c0,0.97-0.82,1.55-1.96,1.55H382.76L382.76,452.94z M392.63,456.65h0.87v-6.77h2.56v-0.79h-6v0.79h2.56V456.65L392.63,456.65z    M398.57,456.65h0.84v-6.2l4.93,6.2h0.69v-7.56h-0.84v6.06l-4.81-6.06h-0.81V456.65L398.57,456.65z M408.27,456.65h5.57v-0.78   h-4.71v-2.65h4.17v-0.78h-4.17v-2.58h4.66v-0.78h-5.52V456.65L408.27,456.65z M416.47,456.65h0.86v-2.94h2.18l2.22,2.94h1.06   l-2.35-3.09c1.2-0.22,2.07-0.95,2.07-2.2v-0.02c0-0.59-0.22-1.12-0.59-1.49c-0.48-0.48-1.23-0.76-2.17-0.76h-3.28V456.65   L416.47,456.65z M417.33,452.94v-3.07h2.36c1.23,0,1.95,0.56,1.95,1.49v0.02c0,0.97-0.82,1.55-1.96,1.55H417.33L417.33,452.94z"/>
	<path class="st0" d="M221.48,456.65h1.32v-5.4l2.39,3.54h0.04l2.41-3.56v5.42h1.34v-7.56h-1.43l-2.32,3.58l-2.32-3.58h-1.43V456.65   L221.48,456.65z M235.63,456.78c2.34,0,4-1.78,4-3.91v-0.02c0-2.13-1.64-3.89-3.98-3.89c-2.35,0-4,1.78-4,3.91v0.02   C231.65,455.01,233.28,456.78,235.63,456.78L235.63,456.78z M235.65,455.54c-1.52,0-2.6-1.21-2.6-2.68v-0.02   c0-1.47,1.06-2.67,2.58-2.67c1.52,0,2.6,1.22,2.6,2.69v0.02C238.23,454.36,237.17,455.54,235.65,455.54L235.65,455.54z    M245.87,456.78c2.35,0,4-1.78,4-3.91v-0.02c0-2.13-1.64-3.89-3.98-3.89c-2.35,0-4,1.78-4,3.91v0.02   C241.89,455.01,243.52,456.78,245.87,456.78L245.87,456.78z M245.89,455.54c-1.52,0-2.6-1.21-2.6-2.68v-0.02   c0-1.47,1.06-2.67,2.57-2.67c1.52,0,2.6,1.22,2.6,2.69v0.02C248.46,454.36,247.41,455.54,245.89,455.54L245.89,455.54z    M252.54,456.65h2.85c2.4,0,4.06-1.65,4.06-3.78v-0.02c0-2.13-1.66-3.76-4.06-3.76h-2.85V456.65L252.54,456.65z M255.38,450.29   c1.6,0,2.65,1.09,2.65,2.57v0.02c0,1.48-1.05,2.55-2.65,2.55h-1.51v-5.14H255.38L255.38,450.29z M263.7,456.65h1.35v-3.01   l3.03-4.55h-1.54l-2.16,3.34l-2.13-3.34h-1.59l3.03,4.58V456.65L263.7,456.65z M270.01,452.31h0.7l1.07-3.18v-0.05h-1.52   L270.01,452.31L270.01,452.31z M276.98,456.75c1.6,0,2.73-0.84,2.73-2.26v-0.02c0-1.25-0.83-1.82-2.44-2.21   c-1.47-0.35-1.82-0.61-1.82-1.19v-0.02c0-0.5,0.46-0.9,1.24-0.9c0.7,0,1.39,0.27,2.07,0.78l0.72-1c-0.77-0.62-1.66-0.95-2.77-0.95   c-1.52,0-2.61,0.9-2.61,2.19v0.02c0,1.39,0.92,1.87,2.54,2.26c1.42,0.32,1.72,0.62,1.72,1.16v0.02c0,0.56-0.52,0.95-1.35,0.95   c-0.94,0-1.68-0.36-2.41-0.98l-0.81,0.95C274.71,456.35,275.81,456.75,276.98,456.75L276.98,456.75z M285.87,456.65h1.37l0.79-1.83   h3.61l0.77,1.83h1.42l-3.36-7.62h-1.24L285.87,456.65L285.87,456.65z M288.52,453.64l1.31-3.02l1.32,3.02H288.52L288.52,453.64z    M296.1,456.65h1.32v-5.38l4.21,5.38h1.12v-7.56h-1.32v5.23l-4.09-5.23h-1.24V456.65L296.1,456.65z M305.01,456.65h1.38l0.78-1.83   h3.61l0.77,1.83h1.42l-3.36-7.62h-1.24L305.01,456.65L305.01,456.65z M307.66,453.64l1.31-3.02l1.32,3.02H307.66L307.66,453.64z    M315.24,456.65h5.36v-1.21h-4.02v-6.35h-1.34V456.65L315.24,456.65z M324.01,456.65h1.35v-3.01l3.03-4.55h-1.54l-2.16,3.34   l-2.13-3.34h-1.59l3.03,4.58V456.65L324.01,456.65z M332.73,456.65h1.35v-6.33h2.42v-1.23h-6.2v1.23h2.42V456.65L332.73,456.65z    M338.86,456.65h1.34v-7.56h-1.34V456.65L338.86,456.65z M346.78,456.78c1.43,0,2.3-0.52,3.1-1.34l-0.86-0.86   c-0.65,0.61-1.26,0.97-2.19,0.97c-1.46,0-2.52-1.2-2.52-2.68v-0.02c0-1.48,1.07-2.67,2.52-2.67c0.87,0,1.53,0.38,2.14,0.94   l0.86-0.98c-0.73-0.69-1.58-1.18-2.99-1.18c-2.31,0-3.94,1.76-3.94,3.91v0.02C342.9,455.06,344.56,456.78,346.78,456.78   L346.78,456.78z M355.12,456.75c1.6,0,2.73-0.84,2.73-2.26v-0.02c0-1.25-0.83-1.82-2.44-2.21c-1.47-0.35-1.82-0.61-1.82-1.19v-0.02   c0-0.5,0.46-0.9,1.24-0.9c0.7,0,1.39,0.27,2.07,0.78l0.72-1c-0.77-0.62-1.66-0.95-2.77-0.95c-1.52,0-2.61,0.9-2.61,2.19v0.02   c0,1.39,0.92,1.87,2.54,2.26c1.42,0.32,1.72,0.62,1.72,1.16v0.02c0,0.56-0.52,0.95-1.35,0.95c-0.94,0-1.68-0.36-2.41-0.98   l-0.81,0.95C352.85,456.35,353.95,456.75,355.12,456.75L355.12,456.75z"/>
	<path d="M207.07,456.65h0.88l0.91-2h4.16l0.9,2h0.93l-3.48-7.62h-0.81L207.07,456.65L207.07,456.65z M209.19,453.87l1.74-3.85   l1.74,3.85H209.19L209.19,453.87z"/>
	<path class="st0" d="M395.64,392.94c-2.86-4.25-7.72-7.05-13.23-7.05c-8.8,0-15.94,7.14-15.94,15.95c0,4.89,2.22,9.28,5.7,12.19   v-11.05h6.5v14.34c1.2,0.28,2.45,0.44,3.74,0.44c1.43,0,2.8-0.19,4.12-0.55v-14.24h6.5v10.72c3.26-2.92,5.32-7.14,5.32-11.86   c0-0.95-0.1-1.88-0.25-2.77h-15.54v-6.14H395.64L395.64,392.94z"/>
	<path class="st1" d="M378.86,395.91c0,1.91-1.55,3.45-3.46,3.45s-3.46-1.55-3.46-3.45c0-1.91,1.55-3.45,3.46-3.45   S378.86,394,378.86,395.91L378.86,395.91z"/>
	<path d="M358.06,407.32v-8.31h-29.65v8.31H358.06L358.06,407.32z M285.73,407.32h37.13v-8.31h-37.13V407.32L285.73,407.32z    M289.19,433.03l-15.5-34.02h-8.8l-15.55,34.02h9.28l10.64-25.12l10.64,25.12H289.19L289.19,433.03z M188.93,433.03h19.15v-7.83   h-19.15c-4.96,0-8.75-1.84-8.75-9.18c0-7.29,3.79-9.18,8.75-9.18h11.49v-7.83h-11.49c-12.05,0-17.93,6.12-17.93,17.01   C171,426.95,176.88,433.03,188.93,433.03L188.93,433.03z M319.3,414.05h-22.21v18.97h8.79v-10.96h13.42V414.05L319.3,414.05z    M347.31,414.04h-8.8v18.99h8.8V414.04L347.31,414.04z"/>
	<path d="M246.14,433.03l-7.29-12.63c3.35-1.94,5.15-5.35,5.15-9.82c0-7.14-4.57-11.57-12.54-11.57h-23.22v8.06h22.73   c2.96,0,4.62,0.88,4.62,3.51c0,2.58-1.65,3.46-4.62,3.46h-14.01v8.06h13.86l6.03,10.93H246.14L246.14,433.03z"/>
</g>
</svg>