<svg xmlns="http://www.w3.org/2000/svg" xmlns:xlink="http://www.w3.org/1999/xlink" version="1.1" id="Calque_1" x="0px" y="0px" style="enable-background:new 0 0 595.28 841.89;" xml:space="preserve" viewBox="169 400.89 256.58 41.37">
<style type="text/css">
	.st0{fill:#FFFFFF;}
</style>
<g>
	<path class="st0" d="M253.32,438.04v4.22h38.33v-4.22H253.32L253.32,438.04z M290.54,429.27v-4.22h-36.19v4.22H290.54   L290.54,429.27z M291.52,412.44h-38.2v4.22h38.2V412.44L291.52,412.44z M331.15,442.26l-14.4-29.82h-4.6l-14.4,29.82h4.86   l11.84-25.22l11.8,25.22H331.15L331.15,442.26z M381.39,412.44l-18.96,26.24l-18.96-26.24h-5.45v29.82h4.22v-24.32l17.55,24.32   h5.24l17.59-24.32v24.32h4.17v-29.82H381.39L381.39,412.44z"/>
	<path class="st0" d="M248.5,442.26l-7.5-11.8c3.75-1.23,6.01-4.09,6.01-8.65c0-6.35-4.39-9.37-10.86-9.37h-20.22v4.22h20.22   c4.18,0,6.52,1.7,6.52,5.15c0,3.41-2.34,5.11-6.52,5.11h-12.57v4.22h12.57c0.09,0,0.21,0,0.34,0l7.03,11.12H248.5L248.5,442.26z"/>
	<path class="st0" d="M180.8,429.27h14.19v-4.22H180.8V429.27L180.8,429.27z M195.54,412.44H169v29.82h26.54   c10.61,0,15.59-5.75,15.59-14.91S206.15,412.44,195.54,412.44L195.54,412.44z M195.37,438.04h-22.16v-21.39h22.16   c7.54,0,11.42,3.24,11.42,10.69C206.79,434.8,202.91,438.04,195.37,438.04L195.37,438.04z"/>
	<path class="st0" d="M411.9,412.33V407h11.34c-2.48-3.69-6.69-6.11-11.47-6.11c-7.63,0-13.81,6.19-13.81,13.81   c0,4.25,1.92,8.05,4.94,10.59v-9.59h5.63v12.41c1.04,0.26,2.12,0.4,3.24,0.4c1.24,0,2.43-0.17,3.57-0.48V415.7h5.63v9.29   c2.82-2.53,4.61-6.2,4.61-10.29c0-0.81-0.08-1.6-0.22-2.38H411.9L411.9,412.33z M408.69,409.58c0,1.65-1.34,2.99-3,2.99   c-1.66,0-3-1.34-3-2.99c0-1.66,1.34-3,3-3C407.35,406.58,408.69,407.91,408.69,409.58L408.69,409.58z"/>
</g>
</svg>