<svg xmlns="http://www.w3.org/2000/svg" xmlns:xlink="http://www.w3.org/1999/xlink" version="1.1" id="Calque_1" x="0px" y="0px" style="enable-background:new 0 0 595.28 841.89;" xml:space="preserve" viewBox="62.5 187.38 468.55 468.55">
<style type="text/css">
	.st0{fill:none;stroke:#D0D0D0;stroke-miterlimit:10;}
</style>
<g>
	<path class="st0" d="M298.99,381.34v-90.09h191.83C448.83,228.9,377.6,187.88,296.78,187.88C167.67,187.88,63,292.54,63,421.68   c0,71.91,32.53,136.17,83.6,179.03V438.59h95.34V648.7c17.62,4.24,35.92,6.73,54.84,6.73c20.91,0,41.07-3.01,60.35-8.15v-208.7   h95.34V595.7c47.82-42.81,78.08-104.82,78.08-174.02c0-13.8-1.43-27.22-3.71-40.33H298.99L298.99,381.34z M244.64,334.79   c0,28.04-22.72,50.73-50.74,50.73c-28.03,0-50.74-22.69-50.74-50.73c0-28.03,22.72-50.74,50.74-50.74   C221.92,284.05,244.64,306.76,244.64,334.79L244.64,334.79z"/>
</g>
</svg>