<svg width="67" height="19" viewBox="0 0 67 19" fill="none" xmlns="http://www.w3.org/2000/svg">
<g clip-path="url(#clip0_297_616)">
<path d="M0 11.94C0 7.9168 2.40909 4.87991 6.39914 4.87991C9.98768 4.87991 12.0454 6.98237 12.447 10.0193H9.28503C8.98389 8.51379 7.95501 7.60532 6.39914 7.60532C4.2661 7.60532 3.21212 9.34439 3.21212 11.94C3.21212 14.5357 4.2661 16.2747 6.39914 16.2747C8.0052 16.2747 9.00899 15.3143 9.28503 13.705H12.447C12.0705 16.8198 9.9124 19.0001 6.39914 19.0001C2.40909 19.0001 0 15.9632 0 11.94Z" fill="#1F1C1A"/>
<path d="M13.3281 5.19138H16.3897V7.60532C17.268 5.71051 18.6733 5.03564 20.3295 5.03564H21.3584V8.04657H20.2041C17.9957 8.04657 16.4901 9.00696 16.4901 12.1477V18.6887H13.3281V5.19138Z" fill="#1F1C1A"/>
<path d="M31.1508 17.1313C30.0215 18.5329 28.6413 19.0001 27.0102 19.0001C24.1745 19.0001 22.2422 17.5466 22.2422 14.925C22.2422 12.537 23.8733 11.343 27.2611 10.746L31.0504 10.0452V9.26653C31.0504 8.04658 30.3478 7.39767 28.6664 7.39767C27.236 7.39767 26.0315 8.02062 25.9562 9.50013H22.8445C22.8947 6.28155 25.5045 4.87991 28.6413 4.87991C32.3553 4.87991 34.1371 6.43729 34.1371 8.90314V18.6887H31.1508V17.1313ZM27.7128 16.5862C29.3691 16.5862 31.0504 15.6777 31.0504 13.4455V12.2515L27.8383 12.9264C26.3577 13.2378 25.4794 13.6012 25.4794 14.8212C25.4794 15.8854 26.1821 16.5862 27.7128 16.5862Z" fill="#1F1C1A"/>
<path d="M40.9153 0.00012207H43.751V2.51788H41.6933C40.7647 2.51788 40.4385 2.90723 40.4385 3.78974V5.19138H43.751V7.70914H40.4385V18.6886H37.3017V7.70914H35.0181V5.19138H37.3017V3.45231C37.3017 0.726898 38.707 0.00012207 40.9153 0.00012207Z" fill="#1F1C1A"/>
<path d="M50.0528 1.03836V5.19137H53.3653V7.70913H50.0528V14.899C50.0528 15.7815 50.379 16.1709 51.3075 16.1709H53.3653V18.6886H50.5296C48.3212 18.6886 46.9159 17.9619 46.9159 15.2364V7.70913H44.6323V5.19137H46.9159V1.03836H50.0528Z" fill="#1F1C1A"/>
<path d="M54.249 0.00012207H57.411V3.03701H54.249V0.00012207ZM54.249 5.19138H57.3859V18.6886H54.249V5.19138Z" fill="#1F1C1A"/>
<path d="M63.6875 1.03836V5.19137H67V7.70913H63.6875V14.899C63.6875 15.7815 64.0138 16.1709 64.9423 16.1709H67V18.6886H64.1643C61.956 18.6886 60.5507 17.9619 60.5507 15.2364V7.70913H58.2671V5.19137H60.5507V1.03836H63.6875Z" fill="#1F1C1A"/>
</g>
<defs>
<clipPath id="clip0_297_616">
<rect width="67" height="19" fill="white"/>
</clipPath>
</defs>
</svg>
