<svg xmlns="http://www.w3.org/2000/svg" xmlns:xlink="http://www.w3.org/1999/xlink" version="1.1" id="Calque_1" x="0px" y="0px" style="enable-background:new 0 0 792 612;" xml:space="preserve" viewBox="122.07 252.54 544.91 108.52">
<style type="text/css">
	.st0{fill:#27AAE2;}
	.st1{fill:#010101;}
	.st2{fill:#92BE97;}
	.st3{fill:#FFFFFF;}
</style>
<g>
	<path class="st0" d="M666.98,252.54H347.6v108.52h319.37V252.54z M419.43,284.72l-2.65-1.52   C417.7,283.66,418.58,284.17,419.43,284.72 M393.8,283.22L393.8,283.22l-2.55,1.47C392.07,284.15,392.92,283.67,393.8,283.22    M431.05,306.45v-0.42c0,0.07,0,0.14,0,0.21C431.05,306.31,431.05,306.38,431.05,306.45"/>
</g>
<rect x="122.07" y="252.54" class="st1" width="225.54" height="108.52"/>
<g>
	<path class="st2" d="M431.05,306.03v0.42c0-0.07,0-0.14,0-0.21C431.05,306.17,431.05,306.11,431.05,306.03"/>
	<path class="st2" d="M416.79,283.2l2.65,1.52C418.58,284.17,417.7,283.66,416.79,283.2"/>
	<path class="st2" d="M393.8,283.22c-0.88,0.44-1.73,0.93-2.55,1.47L393.8,283.22z"/>
	<path class="st3" d="M387.86,316.93l-0.59-0.34v-0.68v-7.81v-0.68l0.59-0.34l10.07-5.79l1.78-1.03l5.01-2.88l0.59-0.34l0.59,0.34   l5.01,2.88v-8.86l-5.6-3.22l-25.5,14.67c-0.15,1.11-0.23,2.24-0.23,3.39c0,8.76,4.38,16.5,11.07,21.15c1.2,0.83,2.47,1.56,3.8,2.19   c3.3,1.54,6.98,2.4,10.86,2.4c2.43,0,4.79-0.34,7.02-0.98L387.86,316.93z"/>
	<path class="st3" d="M423.36,287.89v28.02v0.68v0l-0.59,0.34l-6.79,3.91l-0.59,0.34l-0.59-0.34l-16.86-9.69l-0.59-0.34v-0.68v-5.76   l-7.69,4.42v6.45l25.65,14.75c0.29-0.12,0.58-0.26,0.87-0.39c1.35-0.63,2.63-1.37,3.84-2.21c6.62-4.62,10.98-12.26,11.05-20.92   v-0.42C430.99,298.93,428.06,292.51,423.36,287.89"/>
	<path class="st3" d="M405.31,285.46L405.31,285.46L405.31,285.46l0.6,0.34l6.79,3.91l0.6,0.34v0v0.67v11.58v2.04v5.76v0.68   l-0.6,0.34l-5.01,2.88l7.7,4.43l5.6-3.22v-29.4c-0.5-0.39-1.02-0.76-1.55-1.1l-2.65-1.52c-3.46-1.72-7.35-2.7-11.47-2.7   c-4.14,0-8.05,0.98-11.51,2.72l-2.55,1.47c-5.29,3.46-9.23,8.81-10.86,15.1l24.32-13.99L405.31,285.46z"/>
	<path class="st3" d="M195.77,307.78c-2.23-0.23-2.19-1.48-2.33-3.84c-0.39-6.86-0.43-15.66-0.53-20.71   c-0.05-3.33,0.33-4.18,3.32-4.53l1.01-0.09c0.24-0.19,0.24-1-0.04-1.19c-1.49,0.09-3.05,0.13-4.24,0.13c-0.95,0-1.95,0-3.57-0.13   c-0.1,2.19-1.42,4.81-3.61,9.13l-4.48,9.09c-1.19,2.43-2.38,4.91-3.66,7.14h-0.09c-1.15-2.1-2.19-4.28-3.29-6.51l-5.43-11   c-1.47-3.04-2.67-6-2.48-7.85c-1.57,0.13-2.86,0.13-3.95,0.13c-1.19,0-2.33-0.04-3.76-0.13c-0.38,0.19-0.43,0.9-0.19,1.19   l0.76,0.09c2.9,0.48,3.29,1.1,3.19,4.1c-0.09,2.61-0.29,6.66-0.53,10.61c-0.28,4.72-0.51,7.33-0.8,10.48   c-0.29,3.32-0.96,3.66-2.95,3.9l-1.05,0.14c-0.3,0.24-0.2,0.96,0.1,1.19c1.62-0.09,3.33-0.13,4.85-0.13c1.81,0,3.67,0.05,5.28,0.13   c0.34-0.13,0.38-0.9,0.05-1.19l-1.81-0.14c-1.86-0.14-2.14-0.9-2.14-4.42c0-4.04,0.19-8.29,0.33-11.19   c0.15-2.76,0.29-5.53,0.47-8.48h0.1c1.04,2.19,2.04,4.67,3.05,6.85l4.27,9.19c1.1,2.33,3.38,7,4.2,9.52   c0.09,0.15,0.33,0.19,0.42,0.19c0.2,0,0.38-0.04,0.47-0.19c0.86-2.19,3.01-6.66,5.14-10.85l4.23-8.33c0.96-1.85,2.76-5.66,3.1-6.18   h0.09l0.15,19.84c0,3.05,0,3.81-2.33,4.04l-1.37,0.14c-0.29,0.29-0.25,0.96,0.09,1.19c1.94-0.09,4.09-0.13,5.75-0.13   c1.72,0,3.67,0.05,5.63,0.13c0.32-0.19,0.37-0.9,0.09-1.19L195.77,307.78z"/>
	<path class="st3" d="M210.75,308.21c-5.49,0.47-8.17-4.6-8.59-9.49c-0.57-6.69,2.97-9.33,6.38-9.62c5.22-0.45,8.09,4.47,8.52,9.54   C217.61,305.13,214.35,307.89,210.75,308.21 M209.7,287.65c-6.9,0-11.75,4.86-11.75,11.18c0,6,4.37,10.8,11.75,10.8   c6.7,0,11.57-4.66,11.57-11.09C221.26,292.74,217.36,287.65,209.7,287.65"/>
	<path class="st3" d="M300.83,282.11c0-2.47-1.7-4.57-3.67-4.57c-1.84,0-2.28,1.23-2.28,1.96c0,0.89,0.63,1.28,1.28,1.33   c0.91,0.05,2.38,0.85,2.38,2.67c0,1.94-1.85,3.28-3.61,4.08c-0.24,0.33-0.05,0.82,0.33,1   C298.26,287.69,300.83,285.39,300.83,282.11"/>
	<path class="st3" d="M308.94,297.55l-2.95-1.52c-1.9-1-3.17-2.05-3.17-3.74c0-1.62,1.04-3.25,3.84-3.25c2.81,0,4.04,2.43,4.44,4.1   c0.22,0.33,1.08,0.28,1.24-0.09c0.03-2.05-0.3-3.86-0.68-4.67c-1.61-0.28-2.76-0.71-4.43-0.71c-4.79,0-7.48,2.43-7.48,5.9   c0,2.66,1.96,4.52,4.25,5.7l2.14,1.1c2.72,1.38,3.34,2.95,3.34,4.48c0,2.18-1.57,3.43-4,3.43c-3.19,0-5.28-3.38-5.66-5.1   c-0.34-0.44-1.05-0.38-1.23,0.1c0,2.52,0.57,4.23,1,4.89c0.66,0.47,2.58,1.47,5.47,1.47c4.71,0,7.76-2.33,7.76-6.04   C312.8,300.41,310.65,298.41,308.94,297.55"/>
	<path class="st3" d="M259.3,307.83c-3.64,0-4.1-1.53-4.1-4.56v-11.34c0-1.05,0-1.66,0.27-1.86c0.39-0.32,1.3-0.52,2.87-0.52   c5.37,0,9.46,3.05,9.46,8.9C267.8,304.26,265,307.83,259.3,307.83 M265.48,289.23c-2.24-0.77-4.57-1.05-7.23-1.05   c-3.85,0-6.52,0.09-9.19,0.28c-0.42,0.14-0.47,1.05-0.05,1.19l1.43,0.19c1.1,0.14,1.15,0.95,1.15,4.04v10.1   c0,3.28-0.19,3.46-2.24,3.8l-0.91,0.14c-0.33,0.24-0.28,1.06,0.09,1.19c1.87-0.09,3.34-0.13,4.87-0.13c0.72,0,1.62,0.05,2.56,0.09   c1.01,0.1,2.11,0.14,3.16,0.14c2.37,0,5.04-0.37,7.18-1.48c3.81-1.95,5.76-5.42,5.76-9.18   C272.05,294.17,269.81,290.7,265.48,289.23"/>
	<path class="st3" d="M292.49,288.18c-1.35,0.09-2.35,0.14-3.4,0.14c-1.08,0-2.17-0.04-3.6-0.14c-0.48,0.19-0.53,0.95-0.1,1.18   l1,0.15c1.15,0.15,1.05,0.57,0.34,1.9l-1.9,3.48c-0.8,1.51-1.52,2.65-2.28,3.94c-0.71-1.24-1.43-2.52-2.14-3.94l-1.77-3.38   c-0.77-1.48-0.62-1.75,0.42-2l0.67-0.15c0.47-0.23,0.34-1-0.05-1.18c-1.52,0.09-2.61,0.14-4.04,0.14c-1.71,0-2.81-0.04-4.38-0.14   c-0.37,0.14-0.47,0.9-0.14,1.18l1.24,0.24c1.23,0.24,1.72,0.67,2.71,2.58l3.47,6.43c1.2,2.19,1.33,2.57,1.33,4.05v1.8   c0,2.81-0.19,3.1-2.23,3.34l-1.19,0.14c-0.34,0.24-0.29,1.06,0.09,1.19c2.14-0.09,3.62-0.13,5.15-0.13c1.46,0,3.04,0.05,5.12,0.13   c0.39-0.13,0.44-0.95,0.1-1.19l-1.19-0.14c-2.04-0.23-2.24-0.52-2.24-3.34v-2.57c0-1.37,0.1-1.85,1.82-4.56l2.95-4.77   c1.48-2.37,1.71-2.66,3.19-2.95l1.14-0.24C292.96,289.13,292.86,288.32,292.49,288.18"/>
	<path class="st3" d="M236.31,308.21c-5.49,0.47-8.18-4.6-8.6-9.49c-0.57-6.69,2.97-9.33,6.39-9.62c5.22-0.45,8.08,4.47,8.51,9.54   C243.17,305.13,239.91,307.89,236.31,308.21 M235.26,287.65c-6.9,0-11.75,4.86-11.75,11.18c0,6,4.38,10.8,11.75,10.8   c6.71,0,11.57-4.66,11.57-11.09C246.82,292.74,242.92,287.65,235.26,287.65"/>
	<path class="st3" d="M165.3,329.36l-1.17-3.24c-0.39-1.17-0.61-1.82-0.76-2.29h-0.05c-0.13,0.5-0.35,1.15-0.78,2.29l-1.17,3.24   H165.3z M162.45,320.57h1.75l5.64,14.3h-2.44l-1.4-3.65h-5.27l-1.36,3.65h-2.38L162.45,320.57z"/>
	<path class="st3" d="M183.26,334.87l-6.4-8.43c-0.71-0.91-1.25-1.69-1.75-2.36h-0.04c0.04,0.62,0.07,1.36,0.07,2.29v8.49h-2.27   v-14.24h2.22l6.16,8.1c0.74,0.95,1.3,1.73,1.75,2.42h0.05c-0.02-0.75-0.05-1.55-0.05-2.44v-8.08h2.27v14.24H183.26z"/>
	<path class="st3" d="M196.61,329.36l-1.16-3.24c-0.39-1.17-0.61-1.82-0.76-2.29h-0.04c-0.13,0.5-0.35,1.15-0.78,2.29l-1.16,3.24   H196.61z M193.76,320.57h1.75l5.64,14.3h-2.44l-1.4-3.65h-5.27l-1.36,3.65h-2.38L193.76,320.57z"/>
</g>
<polygon class="st3" points="204.17,320.63 206.44,320.63 206.44,332.95 211.56,332.95 211.56,334.87 204.17,334.87 "/>
<polygon class="st3" points="216.5,329.21 211.71,320.63 214.19,320.63 217.67,327.16 217.71,327.16 221.11,320.63 223.57,320.63   218.8,329.25 218.8,334.87 216.5,334.87 "/>
<polygon class="st3" points="229.27,322.56 225.15,322.56 225.15,320.63 236.06,320.63 235.41,322.56 231.54,322.56 231.54,334.87   229.27,334.87 "/>
<rect x="238.89" y="320.63" class="st3" width="2.27" height="14.24"/>
<g>
	<path class="st3" d="M256.47,334c-1.49,0.82-2.96,1.08-4.34,1.08c-4.52,0-7.06-3-7.06-7.18c0-4.12,2.94-7.41,7.39-7.41   c1.53,0,2.83,0.33,3.65,0.71v2.12c-1.06-0.56-2.2-0.91-3.61-0.91c-3.2,0-5.01,2.46-5.01,5.42c0,3.14,1.88,5.32,4.9,5.32   c1.38,0,2.46-0.39,3.46-0.95L256.47,334z"/>
	<path class="st3" d="M260.23,332.17c0.78,0.52,1.86,0.99,3.15,0.99c1.32,0,2.55-0.5,2.55-1.88c0-3-6.2-2.63-6.2-6.94   c0-2.09,1.64-3.84,4.49-3.84c1.41,0,2.61,0.32,3.35,0.71v2.05c-1.06-0.54-2.16-0.84-3.28-0.84c-1.08,0-2.14,0.43-2.14,1.7   c0,2.81,6.18,2.49,6.18,6.96c0,2.48-2.05,3.99-4.9,3.99c-1.64,0-3.11-0.48-4.11-1.19L260.23,332.17z"/>
</g>
<g>
	<path class="st3" d="M450.16,317.27h7.16l-0.62,1.83h-4.39v3.9h4.37v1.83h-4.37v4.15h5.07v1.83h-7.23V317.27z"/>
	<path class="st3" d="M460.23,317.27h2.16v11.7h4.86v1.83h-7.02V317.27z"/>
	<path class="st3" d="M469.34,317.27h2.16v13.53h-2.16V317.27z"/>
	<path class="st3" d="M477.43,319.1h-3.92v-1.83h10.37l-0.62,1.83h-3.67v11.7h-2.16V319.1z"/>
</g>
<g>
	<path class="st3" d="M486.37,317.27h7.16l-0.62,1.83h-4.39v3.9h4.37v1.83h-4.37v4.15h5.07v1.83h-7.23V317.27z"/>
</g>
<g>
	<path class="st3" d="M450.17,283.57h3.78c1.95,0,3.29,0.31,4.36,0.92c1.83,1.04,2.9,2.9,2.9,5.43c0,2.35-1.01,4.48-3.35,5.58   c-1.01,0.46-2.32,0.76-4.12,0.76h-1.31v7.41h-2.26V283.57z M453.92,294.37c1.28,0,2.23-0.24,2.93-0.61   c1.34-0.7,2.04-2.01,2.04-3.84c0-1.68-0.67-3.05-1.92-3.78c-0.7-0.43-1.65-0.67-3.02-0.67h-1.52v8.9H453.92z"/>
	<path class="st3" d="M472.45,302.05c-1.13,1.07-2.53,1.92-4.33,1.92c-2.62,0-4.58-1.68-4.58-4.45c0-1.92,0.98-3.23,2.44-3.9   c0.98-0.49,2.13-0.64,3.6-0.7l2.74-0.09v-0.91c0-2.2-1.31-3.17-3.11-3.17c-1.74,0-2.96,0.58-3.97,1.19l-0.85-1.59   c1.68-1.07,3.48-1.46,5.06-1.46c2.99,0,5.12,1.46,5.12,4.91v4.97c0,2.84,0.09,4.18,0.27,4.91h-1.98L472.45,302.05z M469.8,296.62   c-1.25,0.03-2.08,0.21-2.71,0.55c-0.82,0.46-1.25,1.28-1.25,2.23c0,1.59,1.04,2.68,2.68,2.68c1.8,0,3.14-1.19,3.81-1.89v-3.66   L469.8,296.62z"/>
	<path class="st3" d="M478.42,289.24h1.89l0.27,1.83c1.59-1.74,2.8-2.2,4.05-2.2c0.58,0,1.19,0.15,1.56,0.37l-0.79,2.04   c-0.37-0.18-0.73-0.3-1.25-0.3c-1.04,0-2.07,0.64-3.48,2.07v10.61h-2.26V289.24z"/>
	<path class="st3" d="M489.3,300.62v-9.55h-2.44v-1.83h2.44v-3.26l2.23-0.73v3.99h4.3l-0.67,1.83h-3.63v9.18   c0,1.25,0.52,1.8,1.49,1.8c0.95,0,1.77-0.4,2.35-0.79l0.79,1.59c-0.88,0.64-2.19,1.13-3.63,1.13   C490.46,303.97,489.3,302.75,489.3,300.62z"/>
	<path class="st3" d="M498.75,289.24h1.89l0.27,1.86c1.59-1.34,3.2-2.23,5.06-2.23c2.26,0,4.27,1.43,4.27,5.06v9.73h-2.23v-8.97   c0-2.16-0.55-3.81-2.59-3.81c-1.62,0-3.08,0.98-4.42,2.16v10.61h-2.26V289.24z"/>
	<path class="st3" d="M515.72,296.84c0.03,2.96,1.74,5.24,4.79,5.24c1.37,0,2.56-0.43,3.57-0.98l0.7,1.59   c-1.25,0.82-2.99,1.28-4.58,1.28c-4.57,0-6.8-3.48-6.8-7.68c0-4.39,2.44-7.41,5.91-7.41c3.66,0,5.76,2.87,5.76,7.41v0.55H515.72z    M522.74,295.1c-0.06-2.19-1.13-4.39-3.38-4.39c-2.23,0-3.57,1.98-3.63,4.39H522.74z"/>
	<path class="st3" d="M528.28,289.24h1.89l0.27,1.83c1.59-1.74,2.8-2.2,4.05-2.2c0.58,0,1.19,0.15,1.56,0.37l-0.79,2.04   c-0.37-0.18-0.73-0.3-1.25-0.3c-1.04,0-2.07,0.64-3.48,2.07v10.61h-2.26V289.24z"/>
	<path class="st3" d="M549.93,283.51h1.55l7.69,20.16h-2.44l-1.98-5.4h-8.08l-1.98,5.4h-2.38L549.93,283.51z M554.01,296.38   l-2.08-5.79c-0.64-1.77-0.94-2.71-1.19-3.48h-0.06c-0.24,0.76-0.58,1.71-1.22,3.48l-2.1,5.79H554.01z"/>
	<path class="st3" d="M561.78,282.08h2.23v18.27c0,1.19,0.37,1.52,1.13,1.52c0.24,0,0.67-0.12,0.88-0.21l0.49,1.77   c-0.58,0.27-1.34,0.43-2.01,0.43c-1.83,0-2.71-1.07-2.71-2.81V282.08z"/>
	<path class="st3" d="M569.15,282.08h2.23v18.27c0,1.19,0.37,1.52,1.13,1.52c0.24,0,0.67-0.12,0.88-0.21l0.49,1.77   c-0.58,0.27-1.34,0.43-2.01,0.43c-1.83,0-2.71-1.07-2.71-2.81V282.08z"/>
	<path class="st3" d="M576.35,284.49c0-0.85,0.61-1.52,1.49-1.52c0.92,0,1.53,0.64,1.53,1.52c0,0.85-0.64,1.49-1.53,1.49   C576.96,285.98,576.35,285.34,576.35,284.49z M576.74,289.24h2.23v14.43h-2.23V289.24z"/>
	<path class="st3" d="M591.35,302.05c-1.13,1.07-2.53,1.92-4.33,1.92c-2.62,0-4.58-1.68-4.58-4.45c0-1.92,0.98-3.23,2.44-3.9   c0.98-0.49,2.13-0.64,3.6-0.7l2.74-0.09v-0.91c0-2.2-1.31-3.17-3.11-3.17c-1.74,0-2.96,0.58-3.97,1.19l-0.85-1.59   c1.68-1.07,3.48-1.46,5.06-1.46c2.99,0,5.12,1.46,5.12,4.91v4.97c0,2.84,0.09,4.18,0.27,4.91h-1.98L591.35,302.05z M588.69,296.62   c-1.25,0.03-2.08,0.21-2.71,0.55c-0.82,0.46-1.25,1.28-1.25,2.23c0,1.59,1.04,2.68,2.68,2.68c1.8,0,3.14-1.19,3.81-1.89v-3.66   L588.69,296.62z"/>
	<path class="st3" d="M597.32,289.24h1.89l0.27,1.86c1.59-1.34,3.2-2.23,5.06-2.23c2.26,0,4.27,1.43,4.27,5.06v9.73h-2.23v-8.97   c0-2.16-0.55-3.81-2.59-3.81c-1.62,0-3.08,0.98-4.42,2.16v10.61h-2.26V289.24z"/>
	<path class="st3" d="M611.98,296.59c0-4.21,2.71-7.72,7.17-7.72c1.43,0,2.71,0.4,3.6,0.88v1.98c-0.95-0.58-2.07-0.98-3.48-0.98   c-3.08,0-4.97,2.41-4.97,5.67c0,3.57,1.86,5.61,4.79,5.61c1.52,0,2.59-0.49,3.48-0.98l0.7,1.59c-1.04,0.7-2.68,1.31-4.45,1.31   C614.39,303.97,611.98,300.65,611.98,296.59z"/>
	<path class="st3" d="M627.25,296.84c0.03,2.96,1.74,5.24,4.79,5.24c1.37,0,2.56-0.43,3.57-0.98l0.7,1.59   c-1.25,0.82-2.99,1.28-4.58,1.28c-4.57,0-6.8-3.48-6.8-7.68c0-4.39,2.44-7.41,5.91-7.41c3.66,0,5.76,2.87,5.76,7.41v0.55H627.25z    M634.26,295.1c-0.06-2.19-1.13-4.39-3.38-4.39c-2.23,0-3.57,1.98-3.63,4.39H634.26z"/>
</g>
</svg>