<svg width="1642" height="972" viewBox="0 0 1642 972" fill="none" xmlns="http://www.w3.org/2000/svg">
<path d="M411.926 -84.7709L602.615 -121.431L680.85 279.172L681.271 282.639C681.814 287.101 683.224 289.132 684.307 290.333C685.752 291.936 688.193 293.636 691.544 294.582C694.896 295.528 697.866 295.356 699.937 294.741C701.492 294.28 703.74 293.284 706.499 289.779L1157.22 -282.042L1309.96 -161.468" stroke="url(#paint0_linear_456_173)" stroke-width="2" stroke-miterlimit="10"/>
<path d="M793.086 564.111C793.095 564.1 793.104 564.089 793.113 564.078L1245.46 -8.8603L1093.22 -128.838L640.818 444.179C638.048 447.691 635.798 448.694 634.243 449.161C632.171 449.782 629.202 449.964 625.855 449.03C622.509 448.096 620.076 446.406 618.637 444.809C617.559 443.612 616.157 441.587 615.63 437.13L615.22 433.666L538.405 33.5748L347.706 70.8654L423.296 464.576C447.909 645.665 678.926 708.795 793.086 564.111ZM793.086 564.111C793.088 564.109 793.085 564.113 793.086 564.111Z" stroke="url(#paint1_linear_456_173)" stroke-width="2" stroke-miterlimit="10"/>
<path fill-rule="evenodd" clip-rule="evenodd" d="M1094.44 466.796L1494.22 432.868L1510.74 626.396L1104.49 660.874L1101 660.919C1096.51 660.976 1094.34 662.158 1093.03 663.105C1091.29 664.368 1089.35 666.611 1088.06 669.84C1086.77 673.07 1086.63 676.042 1087.02 678.166C1087.32 679.762 1088.07 682.104 1091.27 685.226L1612.45 1195.09L1476.69 1333.9L955.579 824.104C955.567 824.092 955.555 824.08 955.543 824.069C823.941 695.399 911.661 472.304 1094.44 466.796Z" stroke="url(#paint2_linear_456_173)" stroke-width="2" stroke-miterlimit="10"/>
<path d="M1575.42 472.632L1558.89 279.103L1105.85 327.308C974.578 349.857 892.115 549.894 892.95 655.497M1677.13 1041.33L1275.11 648.037" stroke="url(#paint3_linear_456_173)" stroke-width="2" stroke-miterlimit="10"/>
<path d="M1512.54 627.698L1575.39 473.434" stroke="url(#paint4_linear_456_173)" stroke-width="2"/>
<path d="M1493.5 433.439L1560.16 279.175" stroke="url(#paint5_linear_456_173)" stroke-width="2"/>
<path d="M535.53 35.4004L600.283 -116.96" stroke="url(#paint6_linear_456_173)" stroke-width="2"/>
<path d="M346.987 67.7749L411.74 -84.5851" stroke="url(#paint7_linear_456_173)" stroke-width="2"/>
<defs>
<linearGradient id="paint0_linear_456_173" x1="629.922" y1="-302.767" x2="1040.59" y2="107.9" gradientUnits="userSpaceOnUse">
<stop stop-color="#FF4135"/>
<stop offset="1" stop-color="#B30137"/>
</linearGradient>
<linearGradient id="paint1_linear_456_173" x1="497.442" y1="-78.8707" x2="967.854" y2="391.541" gradientUnits="userSpaceOnUse">
<stop stop-color="#FF4135"/>
<stop offset="1" stop-color="#B30137"/>
</linearGradient>
<linearGradient id="paint2_linear_456_173" x1="1067.04" y1="434.092" x2="1668.31" y2="1179.28" gradientUnits="userSpaceOnUse">
<stop stop-color="#FF4135"/>
<stop offset="1" stop-color="#B30137"/>
</linearGradient>
<linearGradient id="paint3_linear_456_173" x1="1097.39" y1="308.001" x2="1684.37" y2="1035.48" gradientUnits="userSpaceOnUse">
<stop stop-color="#FF4135"/>
<stop offset="1" stop-color="#B30137"/>
</linearGradient>
<linearGradient id="paint4_linear_456_173" x1="1521.11" y1="527.712" x2="1566.82" y2="573.42" gradientUnits="userSpaceOnUse">
<stop stop-color="#FF4135"/>
<stop offset="1" stop-color="#B30137"/>
</linearGradient>
<linearGradient id="paint5_linear_456_173" x1="1504.93" y1="334.405" x2="1548.73" y2="378.209" gradientUnits="userSpaceOnUse">
<stop stop-color="#FF4135"/>
<stop offset="1" stop-color="#B30137"/>
</linearGradient>
<linearGradient id="paint6_linear_456_173" x1="546.004" y1="-62.6813" x2="589.808" y2="-18.8778" gradientUnits="userSpaceOnUse">
<stop stop-color="#FF4135"/>
<stop offset="1" stop-color="#B30137"/>
</linearGradient>
<linearGradient id="paint7_linear_456_173" x1="357.461" y1="-30.3068" x2="401.265" y2="13.4967" gradientUnits="userSpaceOnUse">
<stop stop-color="#FF4135"/>
<stop offset="1" stop-color="#B30137"/>
</linearGradient>
</defs>
</svg>
