<?xml version="1.0" encoding="UTF-8" standalone="no"?>
<svg
   width="429.64279"
   height="472.40582"
   viewBox="0 0 429.64279 472.40582"
   fill="none"
   version="1.1"
   id="svg20"
   sodipodi:docname="planning_mobile2.svg"
   inkscape:version="1.3.2 (091e20e, 2023-11-25, custom)"
   xmlns:inkscape="http://www.inkscape.org/namespaces/inkscape"
   xmlns:sodipodi="http://sodipodi.sourceforge.net/DTD/sodipodi-0.dtd"
   xmlns="http://www.w3.org/2000/svg"
   xmlns:svg="http://www.w3.org/2000/svg">
  <sodipodi:namedview
     id="namedview20"
     pagecolor="#ffffff"
     bordercolor="#000000"
     borderopacity="0.25"
     inkscape:showpageshadow="2"
     inkscape:pageopacity="0.0"
     inkscape:pagecheckerboard="0"
     inkscape:deskcolor="#d1d1d1"
     showgrid="false"
     inkscape:zoom="1.9876977"
     inkscape:cx="215.32449"
     inkscape:cy="219.6008"
     inkscape:window-width="3440"
     inkscape:window-height="1369"
     inkscape:window-x="1912"
     inkscape:window-y="-8"
     inkscape:window-maximized="1"
     inkscape:current-layer="svg20" />
  <g
     clip-path="url(#clipPath21)"
     id="g13"
     transform="translate(0,-64.8992)">
    <rect
       width="430"
       height="568"
       transform="translate(0,0.735352)"
       fill="#ff4135"
       id="rect1"
       x="0"
       y="0" />
    <rect
       x="16"
       y="113"
       width="396"
       height="82"
       rx="12"
       fill="url(#paint0_linear_424_1038)"
       id="rect2"
       style="fill:url(#paint0_linear_424_1038)" />
    <rect
       x="16"
       y="211"
       width="396"
       height="82"
       rx="12"
       fill="url(#paint1_linear_424_1038)"
       id="rect3"
       style="fill:url(#paint1_linear_424_1038)" />
    <rect
       x="16"
       y="309"
       width="396"
       height="82"
       rx="12"
       fill="url(#paint2_linear_424_1038)"
       id="rect4"
       style="fill:url(#paint2_linear_424_1038)" />
    <rect
       x="16"
       y="407"
       width="396"
       height="82"
       rx="12"
       fill="url(#paint3_linear_424_1038)"
       id="rect5"
       style="fill:url(#paint3_linear_424_1038)" />
    <path
       d="m 56.696,162.216 c -3.924,0 -6.12,-3.06 -6.12,-6.696 0,-3.636 2.196,-6.696 6.408,-6.696 3.384,0 5.544,1.98 5.994,4.644 h -2.484 c -0.36,-1.458 -1.602,-2.502 -3.51,-2.502 -2.718,0 -3.888,2.106 -3.888,4.554 0,2.448 1.17,4.554 3.888,4.554 2.052,0 3.222,-1.206 3.672,-3.06 h -4.212 v -1.98 h 6.678 V 162 h -1.818 v -2.268 c -0.828,1.548 -2.286,2.484 -4.608,2.484 z M 70.9205,162 v -1.08 c -0.81,0.972 -1.8,1.296 -2.97,1.296 -2.034,0 -3.42,-1.008 -3.42,-2.826 0,-1.656 1.17,-2.484 3.6,-2.898 l 2.718,-0.486 v -0.54 c 0,-0.846 -0.504,-1.296 -1.71,-1.296 -1.026,0 -1.89,0.432 -1.944,1.458 h -2.232 c 0.036,-2.232 1.908,-3.204 4.158,-3.204 2.664,0 3.942,1.08 3.942,2.79 V 162 Z m -4.068,-2.682 c 0,0.738 0.504,1.224 1.602,1.224 1.188,0 2.394,-0.63 2.394,-2.178 v -0.828 l -2.304,0.468 c -1.062,0.216 -1.692,0.468 -1.692,1.314 z m 8.8567,-9.558 h 2.25 v 2.88 h 2.376 v 1.746 h -2.376 v 4.986 c 0,0.612 0.234,0.882 0.9,0.882 h 1.476 V 162 h -2.034 c -1.584,0 -2.592,-0.504 -2.592,-2.394 v -5.22 h -1.638 v -1.746 h 1.638 z M 81.7689,162 v -12.96 h 2.268 v 4.788 c 0.648,-0.81 1.584,-1.404 2.88,-1.404 2.16,0 3.33,1.476 3.33,3.672 V 162 h -2.25 v -5.634 c 0,-1.134 -0.504,-1.962 -1.8,-1.962 -0.774,0 -1.998,0.432 -2.16,2.07 V 162 Z m 14.6538,0.216 c -2.898,0 -4.626,-2.106 -4.626,-4.896 0,-2.79 1.728,-4.896 4.626,-4.896 2.898,0 4.6263,2.034 4.6263,5.076 v 0.54 h -7.0023 c 0.198,1.458 1.026,2.394 2.376,2.394 1.098,0 1.836,-0.468 2.232,-1.296 h 2.2143 c -0.612,1.854 -2.2143,3.078 -4.4463,3.078 z m -2.358,-5.796 h 4.698 c -0.234,-1.368 -1.044,-2.214 -2.34,-2.214 -1.296,0 -2.106,0.846 -2.358,2.214 z m 8.5163,5.58 v -9.36 h 2.196 v 1.674 c 0.63,-1.314 1.638,-1.782 2.826,-1.782 h 0.738 v 2.088 h -0.828 c -1.584,0 -2.664,0.666 -2.664,2.844 V 162 Z m 7.172,0 v -9.36 h 2.25 V 162 Z m 0,-10.854 v -2.106 h 2.268 v 2.106 z m 10.412,5.22 c 0,-1.134 -0.504,-1.962 -1.8,-1.962 -0.774,0 -1.998,0.432 -2.16,2.07 V 162 h -2.268 v -9.36 h 2.196 v 1.278 c 0.648,-0.864 1.62,-1.494 2.952,-1.494 2.16,0 3.33,1.476 3.33,3.672 V 162 h -2.25 z m 8.408,9.45 c -2.628,0 -4.086,-1.242 -4.23,-3.258 h 2.214 c 0.144,1.08 0.954,1.494 2.088,1.494 1.152,0 2.394,-0.414 2.394,-2.304 v -1.116 c -0.63,0.846 -1.584,1.35 -2.88,1.35 -2.718,0 -4.194,-2.052 -4.194,-4.788 0,-2.718 1.476,-4.77 4.194,-4.77 1.35,0 2.322,0.54 2.952,1.44 v -1.224 h 2.196 v 9.108 c 0,2.808 -2.088,4.068 -4.734,4.068 z m -2.304,-8.622 c 0,1.764 0.756,2.934 2.412,2.934 1.638,0 2.394,-1.17 2.394,-2.934 0,-1.746 -0.756,-2.934 -2.394,-2.934 -1.656,0 -2.412,1.188 -2.412,2.934 z m 12.91,4.806 v -9.36 h 2.196 v 1.674 c 0.63,-1.314 1.638,-1.782 2.826,-1.782 h 0.738 v 2.088 h -0.828 c -1.584,0 -2.664,0.666 -2.664,2.844 V 162 Z m 11.419,0.216 c -2.898,0 -4.626,-2.106 -4.626,-4.896 0,-2.79 1.728,-4.896 4.626,-4.896 2.898,0 4.626,2.034 4.626,5.076 v 0.54 h -7.002 c 0.198,1.458 1.026,2.394 2.376,2.394 1.098,0 1.836,-0.468 2.232,-1.296 h 2.214 c -0.612,1.854 -2.214,3.078 -4.446,3.078 z m -2.358,-5.796 h 4.698 c -0.234,-1.368 -1.044,-2.214 -2.34,-2.214 -1.296,0 -2.106,0.846 -2.358,2.214 z m 17.463,-3.78 v 12.96 h -2.268 v -4.77 c -0.63,0.864 -1.584,1.386 -2.88,1.386 -2.718,0 -4.194,-2.106 -4.194,-4.896 0,-2.79 1.476,-4.896 4.194,-4.896 1.35,0 2.34,0.576 2.97,1.512 v -1.296 z m -7.038,4.68 c 0,1.8 0.756,3.006 2.412,3.006 1.638,0 2.394,-1.206 2.394,-3.006 0,-1.8 -0.756,-3.006 -2.394,-3.006 -1.656,0 -2.412,1.206 -2.412,3.006 z m 11.241,0.954 c 0,1.134 0.504,1.962 1.8,1.962 0.774,0 1.998,-0.432 2.16,-2.07 v -5.526 h 2.268 V 162 h -2.196 v -1.278 c -0.648,0.864 -1.62,1.494 -2.952,1.494 -2.16,0 -3.33,-1.476 -3.33,-3.672 v -5.904 h 2.25 z m 8.155,3.726 v -9.36 h 2.25 V 162 Z m 0,-10.854 v -2.106 h 2.268 v 2.106 z M 182.245,162 v -9.36 h 2.196 v 1.674 c 0.63,-1.314 1.638,-1.782 2.826,-1.782 h 0.738 v 2.088 h -0.828 c -1.584,0 -2.664,0.666 -2.664,2.844 V 162 Z m 11.42,0.216 c -2.898,0 -4.626,-2.106 -4.626,-4.896 0,-2.79 1.728,-4.896 4.626,-4.896 2.898,0 4.626,2.034 4.626,5.076 v 0.54 h -7.002 c 0.198,1.458 1.026,2.394 2.376,2.394 1.098,0 1.836,-0.468 2.232,-1.296 h 2.214 c -0.612,1.854 -2.214,3.078 -4.446,3.078 z m -2.358,-5.796 h 4.698 c -0.234,-1.368 -1.044,-2.214 -2.34,-2.214 -1.296,0 -2.106,0.846 -2.358,2.214 z m 20.235,-0.054 c 0,-1.134 -0.504,-1.962 -1.602,-1.962 -0.828,0 -1.998,0.504 -1.998,2.448 V 162 h -2.268 v -5.634 c 0,-1.134 -0.504,-1.962 -1.602,-1.962 -0.81,0 -1.98,0.504 -1.98,2.448 V 162 h -2.268 v -9.36 h 2.196 v 1.296 c 0.558,-0.864 1.458,-1.512 2.772,-1.512 1.314,0 2.286,0.666 2.772,1.764 0.63,-0.99 1.656,-1.764 3.096,-1.764 1.962,0 3.132,1.476 3.132,3.672 V 162 h -2.25 z m 8.42,5.85 c -2.898,0 -4.626,-2.106 -4.626,-4.896 0,-2.79 1.728,-4.896 4.626,-4.896 2.898,0 4.626,2.034 4.626,5.076 v 0.54 h -7.002 c 0.198,1.458 1.026,2.394 2.376,2.394 1.098,0 1.836,-0.468 2.232,-1.296 h 2.214 c -0.612,1.854 -2.214,3.078 -4.446,3.078 z m -2.358,-5.796 h 4.698 c -0.234,-1.368 -1.044,-2.214 -2.34,-2.214 -1.296,0 -2.106,0.846 -2.358,2.214 z m 14.744,-0.054 c 0,-1.134 -0.504,-1.962 -1.8,-1.962 -0.774,0 -1.998,0.432 -2.16,2.07 V 162 h -2.268 v -9.36 h 2.196 v 1.278 c 0.648,-0.864 1.62,-1.494 2.952,-1.494 2.16,0 3.33,1.476 3.33,3.672 V 162 h -2.25 z m 5.15,-6.606 h 2.25 v 2.88 h 2.376 v 1.746 h -2.376 v 4.986 c 0,0.612 0.234,0.882 0.9,0.882 h 1.476 V 162 h -2.034 c -1.584,0 -2.592,-0.504 -2.592,-2.394 v -5.22 h -1.638 v -1.746 h 1.638 z m 9.714,12.456 c -2.484,0 -4.14,-0.936 -4.284,-3.294 h 2.196 c 0.144,1.26 0.9,1.656 2.16,1.656 1.08,0 1.818,-0.396 1.818,-1.098 0,-0.666 -0.27,-0.972 -2.196,-1.296 -2.934,-0.504 -3.762,-1.422 -3.762,-2.952 0,-1.764 1.548,-2.808 3.87,-2.808 2.7,0 4.068,1.242 4.104,3.186 h -2.106 c -0.054,-1.242 -0.954,-1.548 -1.998,-1.548 -0.936,0 -1.656,0.378 -1.656,1.08 0,0.684 0.432,0.954 2.304,1.26 2.862,0.468 3.69,1.368 3.69,2.934 0,1.872 -1.728,2.88 -4.14,2.88 z"
       fill="#1f1c1a"
       id="path5" />
    <path
       d="m 56.696,260.216 c -3.924,0 -6.12,-3.06 -6.12,-6.696 0,-3.636 2.196,-6.696 6.408,-6.696 3.384,0 5.544,1.98 5.994,4.644 h -2.484 c -0.36,-1.458 -1.602,-2.502 -3.51,-2.502 -2.718,0 -3.888,2.106 -3.888,4.554 0,2.448 1.17,4.554 3.888,4.554 2.052,0 3.222,-1.206 3.672,-3.06 h -4.212 v -1.98 h 6.678 V 260 h -1.818 v -2.268 c -0.828,1.548 -2.286,2.484 -4.608,2.484 z M 70.9205,260 v -1.08 c -0.81,0.972 -1.8,1.296 -2.97,1.296 -2.034,0 -3.42,-1.008 -3.42,-2.826 0,-1.656 1.17,-2.484 3.6,-2.898 l 2.718,-0.486 v -0.54 c 0,-0.846 -0.504,-1.296 -1.71,-1.296 -1.026,0 -1.89,0.432 -1.944,1.458 h -2.232 c 0.036,-2.232 1.908,-3.204 4.158,-3.204 2.664,0 3.942,1.08 3.942,2.79 V 260 Z m -4.068,-2.682 c 0,0.738 0.504,1.224 1.602,1.224 1.188,0 2.394,-0.63 2.394,-2.178 v -0.828 l -2.304,0.468 c -1.062,0.216 -1.692,0.468 -1.692,1.314 z m 8.8567,-9.558 h 2.25 v 2.88 h 2.376 v 1.746 h -2.376 v 4.986 c 0,0.612 0.234,0.882 0.9,0.882 h 1.476 V 260 h -2.034 c -1.584,0 -2.592,-0.504 -2.592,-2.394 v -5.22 h -1.638 v -1.746 h 1.638 z M 81.7689,260 v -12.96 h 2.268 v 4.788 c 0.648,-0.81 1.584,-1.404 2.88,-1.404 2.16,0 3.33,1.476 3.33,3.672 V 260 h -2.25 v -5.634 c 0,-1.134 -0.504,-1.962 -1.8,-1.962 -0.774,0 -1.998,0.432 -2.16,2.07 V 260 Z m 14.6538,0.216 c -2.898,0 -4.626,-2.106 -4.626,-4.896 0,-2.79 1.728,-4.896 4.626,-4.896 2.898,0 4.6263,2.034 4.6263,5.076 v 0.54 h -7.0023 c 0.198,1.458 1.026,2.394 2.376,2.394 1.098,0 1.836,-0.468 2.232,-1.296 h 2.2143 c -0.612,1.854 -2.2143,3.078 -4.4463,3.078 z m -2.358,-5.796 h 4.698 c -0.234,-1.368 -1.044,-2.214 -2.34,-2.214 -1.296,0 -2.106,0.846 -2.358,2.214 z m 8.5163,5.58 v -9.36 h 2.196 v 1.674 c 0.63,-1.314 1.638,-1.782 2.826,-1.782 h 0.738 v 2.088 h -0.828 c -1.584,0 -2.664,0.666 -2.664,2.844 V 260 Z m 7.172,0 v -9.36 h 2.25 V 260 Z m 0,-10.854 v -2.106 h 2.268 v 2.106 z m 10.412,5.22 c 0,-1.134 -0.504,-1.962 -1.8,-1.962 -0.774,0 -1.998,0.432 -2.16,2.07 V 260 h -2.268 v -9.36 h 2.196 v 1.278 c 0.648,-0.864 1.62,-1.494 2.952,-1.494 2.16,0 3.33,1.476 3.33,3.672 V 260 h -2.25 z m 8.408,9.45 c -2.628,0 -4.086,-1.242 -4.23,-3.258 h 2.214 c 0.144,1.08 0.954,1.494 2.088,1.494 1.152,0 2.394,-0.414 2.394,-2.304 v -1.116 c -0.63,0.846 -1.584,1.35 -2.88,1.35 -2.718,0 -4.194,-2.052 -4.194,-4.788 0,-2.718 1.476,-4.77 4.194,-4.77 1.35,0 2.322,0.54 2.952,1.44 v -1.224 h 2.196 v 9.108 c 0,2.808 -2.088,4.068 -4.734,4.068 z m -2.304,-8.622 c 0,1.764 0.756,2.934 2.412,2.934 1.638,0 2.394,-1.17 2.394,-2.934 0,-1.746 -0.756,-2.934 -2.394,-2.934 -1.656,0 -2.412,1.188 -2.412,2.934 z m 12.91,4.806 v -9.36 h 2.196 v 1.674 c 0.63,-1.314 1.638,-1.782 2.826,-1.782 h 0.738 v 2.088 h -0.828 c -1.584,0 -2.664,0.666 -2.664,2.844 V 260 Z m 11.419,0.216 c -2.898,0 -4.626,-2.106 -4.626,-4.896 0,-2.79 1.728,-4.896 4.626,-4.896 2.898,0 4.626,2.034 4.626,5.076 v 0.54 h -7.002 c 0.198,1.458 1.026,2.394 2.376,2.394 1.098,0 1.836,-0.468 2.232,-1.296 h 2.214 c -0.612,1.854 -2.214,3.078 -4.446,3.078 z m -2.358,-5.796 h 4.698 c -0.234,-1.368 -1.044,-2.214 -2.34,-2.214 -1.296,0 -2.106,0.846 -2.358,2.214 z m 17.463,-3.78 v 12.96 h -2.268 v -4.77 c -0.63,0.864 -1.584,1.386 -2.88,1.386 -2.718,0 -4.194,-2.106 -4.194,-4.896 0,-2.79 1.476,-4.896 4.194,-4.896 1.35,0 2.34,0.576 2.97,1.512 v -1.296 z m -7.038,4.68 c 0,1.8 0.756,3.006 2.412,3.006 1.638,0 2.394,-1.206 2.394,-3.006 0,-1.8 -0.756,-3.006 -2.394,-3.006 -1.656,0 -2.412,1.206 -2.412,3.006 z m 11.241,0.954 c 0,1.134 0.504,1.962 1.8,1.962 0.774,0 1.998,-0.432 2.16,-2.07 v -5.526 h 2.268 V 260 h -2.196 v -1.278 c -0.648,0.864 -1.62,1.494 -2.952,1.494 -2.16,0 -3.33,-1.476 -3.33,-3.672 v -5.904 h 2.25 z m 8.155,3.726 v -9.36 h 2.25 V 260 Z m 0,-10.854 v -2.106 h 2.268 v 2.106 z M 182.245,260 v -9.36 h 2.196 v 1.674 c 0.63,-1.314 1.638,-1.782 2.826,-1.782 h 0.738 v 2.088 h -0.828 c -1.584,0 -2.664,0.666 -2.664,2.844 V 260 Z m 11.42,0.216 c -2.898,0 -4.626,-2.106 -4.626,-4.896 0,-2.79 1.728,-4.896 4.626,-4.896 2.898,0 4.626,2.034 4.626,5.076 v 0.54 h -7.002 c 0.198,1.458 1.026,2.394 2.376,2.394 1.098,0 1.836,-0.468 2.232,-1.296 h 2.214 c -0.612,1.854 -2.214,3.078 -4.446,3.078 z m -2.358,-5.796 h 4.698 c -0.234,-1.368 -1.044,-2.214 -2.34,-2.214 -1.296,0 -2.106,0.846 -2.358,2.214 z m 20.235,-0.054 c 0,-1.134 -0.504,-1.962 -1.602,-1.962 -0.828,0 -1.998,0.504 -1.998,2.448 V 260 h -2.268 v -5.634 c 0,-1.134 -0.504,-1.962 -1.602,-1.962 -0.81,0 -1.98,0.504 -1.98,2.448 V 260 h -2.268 v -9.36 h 2.196 v 1.296 c 0.558,-0.864 1.458,-1.512 2.772,-1.512 1.314,0 2.286,0.666 2.772,1.764 0.63,-0.99 1.656,-1.764 3.096,-1.764 1.962,0 3.132,1.476 3.132,3.672 V 260 h -2.25 z m 8.42,5.85 c -2.898,0 -4.626,-2.106 -4.626,-4.896 0,-2.79 1.728,-4.896 4.626,-4.896 2.898,0 4.626,2.034 4.626,5.076 v 0.54 h -7.002 c 0.198,1.458 1.026,2.394 2.376,2.394 1.098,0 1.836,-0.468 2.232,-1.296 h 2.214 c -0.612,1.854 -2.214,3.078 -4.446,3.078 z m -2.358,-5.796 h 4.698 c -0.234,-1.368 -1.044,-2.214 -2.34,-2.214 -1.296,0 -2.106,0.846 -2.358,2.214 z m 14.744,-0.054 c 0,-1.134 -0.504,-1.962 -1.8,-1.962 -0.774,0 -1.998,0.432 -2.16,2.07 V 260 h -2.268 v -9.36 h 2.196 v 1.278 c 0.648,-0.864 1.62,-1.494 2.952,-1.494 2.16,0 3.33,1.476 3.33,3.672 V 260 h -2.25 z m 5.15,-6.606 h 2.25 v 2.88 h 2.376 v 1.746 h -2.376 v 4.986 c 0,0.612 0.234,0.882 0.9,0.882 h 1.476 V 260 h -2.034 c -1.584,0 -2.592,-0.504 -2.592,-2.394 v -5.22 h -1.638 v -1.746 h 1.638 z m 9.714,12.456 c -2.484,0 -4.14,-0.936 -4.284,-3.294 h 2.196 c 0.144,1.26 0.9,1.656 2.16,1.656 1.08,0 1.818,-0.396 1.818,-1.098 0,-0.666 -0.27,-0.972 -2.196,-1.296 -2.934,-0.504 -3.762,-1.422 -3.762,-2.952 0,-1.764 1.548,-2.808 3.87,-2.808 2.7,0 4.068,1.242 4.104,3.186 h -2.106 c -0.054,-1.242 -0.954,-1.548 -1.998,-1.548 -0.936,0 -1.656,0.378 -1.656,1.08 0,0.684 0.432,0.954 2.304,1.26 2.862,0.468 3.69,1.368 3.69,2.934 0,1.872 -1.728,2.88 -4.14,2.88 z"
       fill="#1f1c1a"
       id="path6" />
    <path
       d="m 56.696,358.216 c -3.924,0 -6.12,-3.06 -6.12,-6.696 0,-3.636 2.196,-6.696 6.408,-6.696 3.384,0 5.544,1.98 5.994,4.644 h -2.484 c -0.36,-1.458 -1.602,-2.502 -3.51,-2.502 -2.718,0 -3.888,2.106 -3.888,4.554 0,2.448 1.17,4.554 3.888,4.554 2.052,0 3.222,-1.206 3.672,-3.06 h -4.212 v -1.98 h 6.678 V 358 h -1.818 v -2.268 c -0.828,1.548 -2.286,2.484 -4.608,2.484 z M 70.9205,358 v -1.08 c -0.81,0.972 -1.8,1.296 -2.97,1.296 -2.034,0 -3.42,-1.008 -3.42,-2.826 0,-1.656 1.17,-2.484 3.6,-2.898 l 2.718,-0.486 v -0.54 c 0,-0.846 -0.504,-1.296 -1.71,-1.296 -1.026,0 -1.89,0.432 -1.944,1.458 h -2.232 c 0.036,-2.232 1.908,-3.204 4.158,-3.204 2.664,0 3.942,1.08 3.942,2.79 V 358 Z m -4.068,-2.682 c 0,0.738 0.504,1.224 1.602,1.224 1.188,0 2.394,-0.63 2.394,-2.178 v -0.828 l -2.304,0.468 c -1.062,0.216 -1.692,0.468 -1.692,1.314 z m 8.8567,-9.558 h 2.25 v 2.88 h 2.376 v 1.746 h -2.376 v 4.986 c 0,0.612 0.234,0.882 0.9,0.882 h 1.476 V 358 h -2.034 c -1.584,0 -2.592,-0.504 -2.592,-2.394 v -5.22 h -1.638 v -1.746 h 1.638 z M 81.7689,358 v -12.96 h 2.268 v 4.788 c 0.648,-0.81 1.584,-1.404 2.88,-1.404 2.16,0 3.33,1.476 3.33,3.672 V 358 h -2.25 v -5.634 c 0,-1.134 -0.504,-1.962 -1.8,-1.962 -0.774,0 -1.998,0.432 -2.16,2.07 V 358 Z m 14.6538,0.216 c -2.898,0 -4.626,-2.106 -4.626,-4.896 0,-2.79 1.728,-4.896 4.626,-4.896 2.898,0 4.6263,2.034 4.6263,5.076 v 0.54 h -7.0023 c 0.198,1.458 1.026,2.394 2.376,2.394 1.098,0 1.836,-0.468 2.232,-1.296 h 2.2143 c -0.612,1.854 -2.2143,3.078 -4.4463,3.078 z m -2.358,-5.796 h 4.698 c -0.234,-1.368 -1.044,-2.214 -2.34,-2.214 -1.296,0 -2.106,0.846 -2.358,2.214 z m 8.5163,5.58 v -9.36 h 2.196 v 1.674 c 0.63,-1.314 1.638,-1.782 2.826,-1.782 h 0.738 v 2.088 h -0.828 c -1.584,0 -2.664,0.666 -2.664,2.844 V 358 Z m 7.172,0 v -9.36 h 2.25 V 358 Z m 0,-10.854 v -2.106 h 2.268 v 2.106 z m 10.412,5.22 c 0,-1.134 -0.504,-1.962 -1.8,-1.962 -0.774,0 -1.998,0.432 -2.16,2.07 V 358 h -2.268 v -9.36 h 2.196 v 1.278 c 0.648,-0.864 1.62,-1.494 2.952,-1.494 2.16,0 3.33,1.476 3.33,3.672 V 358 h -2.25 z m 8.408,9.45 c -2.628,0 -4.086,-1.242 -4.23,-3.258 h 2.214 c 0.144,1.08 0.954,1.494 2.088,1.494 1.152,0 2.394,-0.414 2.394,-2.304 v -1.116 c -0.63,0.846 -1.584,1.35 -2.88,1.35 -2.718,0 -4.194,-2.052 -4.194,-4.788 0,-2.718 1.476,-4.77 4.194,-4.77 1.35,0 2.322,0.54 2.952,1.44 v -1.224 h 2.196 v 9.108 c 0,2.808 -2.088,4.068 -4.734,4.068 z m -2.304,-8.622 c 0,1.764 0.756,2.934 2.412,2.934 1.638,0 2.394,-1.17 2.394,-2.934 0,-1.746 -0.756,-2.934 -2.394,-2.934 -1.656,0 -2.412,1.188 -2.412,2.934 z m 12.91,4.806 v -9.36 h 2.196 v 1.674 c 0.63,-1.314 1.638,-1.782 2.826,-1.782 h 0.738 v 2.088 h -0.828 c -1.584,0 -2.664,0.666 -2.664,2.844 V 358 Z m 11.419,0.216 c -2.898,0 -4.626,-2.106 -4.626,-4.896 0,-2.79 1.728,-4.896 4.626,-4.896 2.898,0 4.626,2.034 4.626,5.076 v 0.54 h -7.002 c 0.198,1.458 1.026,2.394 2.376,2.394 1.098,0 1.836,-0.468 2.232,-1.296 h 2.214 c -0.612,1.854 -2.214,3.078 -4.446,3.078 z m -2.358,-5.796 h 4.698 c -0.234,-1.368 -1.044,-2.214 -2.34,-2.214 -1.296,0 -2.106,0.846 -2.358,2.214 z m 17.463,-3.78 v 12.96 h -2.268 v -4.77 c -0.63,0.864 -1.584,1.386 -2.88,1.386 -2.718,0 -4.194,-2.106 -4.194,-4.896 0,-2.79 1.476,-4.896 4.194,-4.896 1.35,0 2.34,0.576 2.97,1.512 v -1.296 z m -7.038,4.68 c 0,1.8 0.756,3.006 2.412,3.006 1.638,0 2.394,-1.206 2.394,-3.006 0,-1.8 -0.756,-3.006 -2.394,-3.006 -1.656,0 -2.412,1.206 -2.412,3.006 z m 11.241,0.954 c 0,1.134 0.504,1.962 1.8,1.962 0.774,0 1.998,-0.432 2.16,-2.07 v -5.526 h 2.268 V 358 h -2.196 v -1.278 c -0.648,0.864 -1.62,1.494 -2.952,1.494 -2.16,0 -3.33,-1.476 -3.33,-3.672 v -5.904 h 2.25 z m 8.155,3.726 v -9.36 h 2.25 V 358 Z m 0,-10.854 v -2.106 h 2.268 v 2.106 z M 182.245,358 v -9.36 h 2.196 v 1.674 c 0.63,-1.314 1.638,-1.782 2.826,-1.782 h 0.738 v 2.088 h -0.828 c -1.584,0 -2.664,0.666 -2.664,2.844 V 358 Z m 11.42,0.216 c -2.898,0 -4.626,-2.106 -4.626,-4.896 0,-2.79 1.728,-4.896 4.626,-4.896 2.898,0 4.626,2.034 4.626,5.076 v 0.54 h -7.002 c 0.198,1.458 1.026,2.394 2.376,2.394 1.098,0 1.836,-0.468 2.232,-1.296 h 2.214 c -0.612,1.854 -2.214,3.078 -4.446,3.078 z m -2.358,-5.796 h 4.698 c -0.234,-1.368 -1.044,-2.214 -2.34,-2.214 -1.296,0 -2.106,0.846 -2.358,2.214 z m 20.235,-0.054 c 0,-1.134 -0.504,-1.962 -1.602,-1.962 -0.828,0 -1.998,0.504 -1.998,2.448 V 358 h -2.268 v -5.634 c 0,-1.134 -0.504,-1.962 -1.602,-1.962 -0.81,0 -1.98,0.504 -1.98,2.448 V 358 h -2.268 v -9.36 h 2.196 v 1.296 c 0.558,-0.864 1.458,-1.512 2.772,-1.512 1.314,0 2.286,0.666 2.772,1.764 0.63,-0.99 1.656,-1.764 3.096,-1.764 1.962,0 3.132,1.476 3.132,3.672 V 358 h -2.25 z m 8.42,5.85 c -2.898,0 -4.626,-2.106 -4.626,-4.896 0,-2.79 1.728,-4.896 4.626,-4.896 2.898,0 4.626,2.034 4.626,5.076 v 0.54 h -7.002 c 0.198,1.458 1.026,2.394 2.376,2.394 1.098,0 1.836,-0.468 2.232,-1.296 h 2.214 c -0.612,1.854 -2.214,3.078 -4.446,3.078 z m -2.358,-5.796 h 4.698 c -0.234,-1.368 -1.044,-2.214 -2.34,-2.214 -1.296,0 -2.106,0.846 -2.358,2.214 z m 14.744,-0.054 c 0,-1.134 -0.504,-1.962 -1.8,-1.962 -0.774,0 -1.998,0.432 -2.16,2.07 V 358 h -2.268 v -9.36 h 2.196 v 1.278 c 0.648,-0.864 1.62,-1.494 2.952,-1.494 2.16,0 3.33,1.476 3.33,3.672 V 358 h -2.25 z m 5.15,-6.606 h 2.25 v 2.88 h 2.376 v 1.746 h -2.376 v 4.986 c 0,0.612 0.234,0.882 0.9,0.882 h 1.476 V 358 h -2.034 c -1.584,0 -2.592,-0.504 -2.592,-2.394 v -5.22 h -1.638 v -1.746 h 1.638 z m 9.714,12.456 c -2.484,0 -4.14,-0.936 -4.284,-3.294 h 2.196 c 0.144,1.26 0.9,1.656 2.16,1.656 1.08,0 1.818,-0.396 1.818,-1.098 0,-0.666 -0.27,-0.972 -2.196,-1.296 -2.934,-0.504 -3.762,-1.422 -3.762,-2.952 0,-1.764 1.548,-2.808 3.87,-2.808 2.7,0 4.068,1.242 4.104,3.186 h -2.106 c -0.054,-1.242 -0.954,-1.548 -1.998,-1.548 -0.936,0 -1.656,0.378 -1.656,1.08 0,0.684 0.432,0.954 2.304,1.26 2.862,0.468 3.69,1.368 3.69,2.934 0,1.872 -1.728,2.88 -4.14,2.88 z"
       fill="#1f1c1a"
       id="path7" />
    <path
       d="m 56.696,456.216 c -3.924,0 -6.12,-3.06 -6.12,-6.696 0,-3.636 2.196,-6.696 6.408,-6.696 3.384,0 5.544,1.98 5.994,4.644 h -2.484 c -0.36,-1.458 -1.602,-2.502 -3.51,-2.502 -2.718,0 -3.888,2.106 -3.888,4.554 0,2.448 1.17,4.554 3.888,4.554 2.052,0 3.222,-1.206 3.672,-3.06 h -4.212 v -1.98 h 6.678 V 456 h -1.818 v -2.268 c -0.828,1.548 -2.286,2.484 -4.608,2.484 z M 70.9205,456 v -1.08 c -0.81,0.972 -1.8,1.296 -2.97,1.296 -2.034,0 -3.42,-1.008 -3.42,-2.826 0,-1.656 1.17,-2.484 3.6,-2.898 l 2.718,-0.486 v -0.54 c 0,-0.846 -0.504,-1.296 -1.71,-1.296 -1.026,0 -1.89,0.432 -1.944,1.458 h -2.232 c 0.036,-2.232 1.908,-3.204 4.158,-3.204 2.664,0 3.942,1.08 3.942,2.79 V 456 Z m -4.068,-2.682 c 0,0.738 0.504,1.224 1.602,1.224 1.188,0 2.394,-0.63 2.394,-2.178 v -0.828 l -2.304,0.468 c -1.062,0.216 -1.692,0.468 -1.692,1.314 z m 8.8567,-9.558 h 2.25 v 2.88 h 2.376 v 1.746 h -2.376 v 4.986 c 0,0.612 0.234,0.882 0.9,0.882 h 1.476 V 456 h -2.034 c -1.584,0 -2.592,-0.504 -2.592,-2.394 v -5.22 h -1.638 v -1.746 h 1.638 z M 81.7689,456 v -12.96 h 2.268 v 4.788 c 0.648,-0.81 1.584,-1.404 2.88,-1.404 2.16,0 3.33,1.476 3.33,3.672 V 456 h -2.25 v -5.634 c 0,-1.134 -0.504,-1.962 -1.8,-1.962 -0.774,0 -1.998,0.432 -2.16,2.07 V 456 Z m 14.6538,0.216 c -2.898,0 -4.626,-2.106 -4.626,-4.896 0,-2.79 1.728,-4.896 4.626,-4.896 2.898,0 4.6263,2.034 4.6263,5.076 v 0.54 h -7.0023 c 0.198,1.458 1.026,2.394 2.376,2.394 1.098,0 1.836,-0.468 2.232,-1.296 h 2.2143 c -0.612,1.854 -2.2143,3.078 -4.4463,3.078 z m -2.358,-5.796 h 4.698 c -0.234,-1.368 -1.044,-2.214 -2.34,-2.214 -1.296,0 -2.106,0.846 -2.358,2.214 z m 8.5163,5.58 v -9.36 h 2.196 v 1.674 c 0.63,-1.314 1.638,-1.782 2.826,-1.782 h 0.738 v 2.088 h -0.828 c -1.584,0 -2.664,0.666 -2.664,2.844 V 456 Z m 7.172,0 v -9.36 h 2.25 V 456 Z m 0,-10.854 v -2.106 h 2.268 v 2.106 z m 10.412,5.22 c 0,-1.134 -0.504,-1.962 -1.8,-1.962 -0.774,0 -1.998,0.432 -2.16,2.07 V 456 h -2.268 v -9.36 h 2.196 v 1.278 c 0.648,-0.864 1.62,-1.494 2.952,-1.494 2.16,0 3.33,1.476 3.33,3.672 V 456 h -2.25 z m 8.408,9.45 c -2.628,0 -4.086,-1.242 -4.23,-3.258 h 2.214 c 0.144,1.08 0.954,1.494 2.088,1.494 1.152,0 2.394,-0.414 2.394,-2.304 v -1.116 c -0.63,0.846 -1.584,1.35 -2.88,1.35 -2.718,0 -4.194,-2.052 -4.194,-4.788 0,-2.718 1.476,-4.77 4.194,-4.77 1.35,0 2.322,0.54 2.952,1.44 v -1.224 h 2.196 v 9.108 c 0,2.808 -2.088,4.068 -4.734,4.068 z m -2.304,-8.622 c 0,1.764 0.756,2.934 2.412,2.934 1.638,0 2.394,-1.17 2.394,-2.934 0,-1.746 -0.756,-2.934 -2.394,-2.934 -1.656,0 -2.412,1.188 -2.412,2.934 z m 12.91,4.806 v -9.36 h 2.196 v 1.674 c 0.63,-1.314 1.638,-1.782 2.826,-1.782 h 0.738 v 2.088 h -0.828 c -1.584,0 -2.664,0.666 -2.664,2.844 V 456 Z m 11.419,0.216 c -2.898,0 -4.626,-2.106 -4.626,-4.896 0,-2.79 1.728,-4.896 4.626,-4.896 2.898,0 4.626,2.034 4.626,5.076 v 0.54 h -7.002 c 0.198,1.458 1.026,2.394 2.376,2.394 1.098,0 1.836,-0.468 2.232,-1.296 h 2.214 c -0.612,1.854 -2.214,3.078 -4.446,3.078 z m -2.358,-5.796 h 4.698 c -0.234,-1.368 -1.044,-2.214 -2.34,-2.214 -1.296,0 -2.106,0.846 -2.358,2.214 z m 17.463,-3.78 v 12.96 h -2.268 v -4.77 c -0.63,0.864 -1.584,1.386 -2.88,1.386 -2.718,0 -4.194,-2.106 -4.194,-4.896 0,-2.79 1.476,-4.896 4.194,-4.896 1.35,0 2.34,0.576 2.97,1.512 v -1.296 z m -7.038,4.68 c 0,1.8 0.756,3.006 2.412,3.006 1.638,0 2.394,-1.206 2.394,-3.006 0,-1.8 -0.756,-3.006 -2.394,-3.006 -1.656,0 -2.412,1.206 -2.412,3.006 z m 11.241,0.954 c 0,1.134 0.504,1.962 1.8,1.962 0.774,0 1.998,-0.432 2.16,-2.07 v -5.526 h 2.268 V 456 h -2.196 v -1.278 c -0.648,0.864 -1.62,1.494 -2.952,1.494 -2.16,0 -3.33,-1.476 -3.33,-3.672 v -5.904 h 2.25 z m 8.155,3.726 v -9.36 h 2.25 V 456 Z m 0,-10.854 v -2.106 h 2.268 v 2.106 z M 182.245,456 v -9.36 h 2.196 v 1.674 c 0.63,-1.314 1.638,-1.782 2.826,-1.782 h 0.738 v 2.088 h -0.828 c -1.584,0 -2.664,0.666 -2.664,2.844 V 456 Z m 11.42,0.216 c -2.898,0 -4.626,-2.106 -4.626,-4.896 0,-2.79 1.728,-4.896 4.626,-4.896 2.898,0 4.626,2.034 4.626,5.076 v 0.54 h -7.002 c 0.198,1.458 1.026,2.394 2.376,2.394 1.098,0 1.836,-0.468 2.232,-1.296 h 2.214 c -0.612,1.854 -2.214,3.078 -4.446,3.078 z m -2.358,-5.796 h 4.698 c -0.234,-1.368 -1.044,-2.214 -2.34,-2.214 -1.296,0 -2.106,0.846 -2.358,2.214 z m 20.235,-0.054 c 0,-1.134 -0.504,-1.962 -1.602,-1.962 -0.828,0 -1.998,0.504 -1.998,2.448 V 456 h -2.268 v -5.634 c 0,-1.134 -0.504,-1.962 -1.602,-1.962 -0.81,0 -1.98,0.504 -1.98,2.448 V 456 h -2.268 v -9.36 h 2.196 v 1.296 c 0.558,-0.864 1.458,-1.512 2.772,-1.512 1.314,0 2.286,0.666 2.772,1.764 0.63,-0.99 1.656,-1.764 3.096,-1.764 1.962,0 3.132,1.476 3.132,3.672 V 456 h -2.25 z m 8.42,5.85 c -2.898,0 -4.626,-2.106 -4.626,-4.896 0,-2.79 1.728,-4.896 4.626,-4.896 2.898,0 4.626,2.034 4.626,5.076 v 0.54 h -7.002 c 0.198,1.458 1.026,2.394 2.376,2.394 1.098,0 1.836,-0.468 2.232,-1.296 h 2.214 c -0.612,1.854 -2.214,3.078 -4.446,3.078 z m -2.358,-5.796 h 4.698 c -0.234,-1.368 -1.044,-2.214 -2.34,-2.214 -1.296,0 -2.106,0.846 -2.358,2.214 z m 14.744,-0.054 c 0,-1.134 -0.504,-1.962 -1.8,-1.962 -0.774,0 -1.998,0.432 -2.16,2.07 V 456 h -2.268 v -9.36 h 2.196 v 1.278 c 0.648,-0.864 1.62,-1.494 2.952,-1.494 2.16,0 3.33,1.476 3.33,3.672 V 456 h -2.25 z m 5.15,-6.606 h 2.25 v 2.88 h 2.376 v 1.746 h -2.376 v 4.986 c 0,0.612 0.234,0.882 0.9,0.882 h 1.476 V 456 h -2.034 c -1.584,0 -2.592,-0.504 -2.592,-2.394 v -5.22 h -1.638 v -1.746 h 1.638 z m 9.714,12.456 c -2.484,0 -4.14,-0.936 -4.284,-3.294 h 2.196 c 0.144,1.26 0.9,1.656 2.16,1.656 1.08,0 1.818,-0.396 1.818,-1.098 0,-0.666 -0.27,-0.972 -2.196,-1.296 -2.934,-0.504 -3.762,-1.422 -3.762,-2.952 0,-1.764 1.548,-2.808 3.87,-2.808 2.7,0 4.068,1.242 4.104,3.186 h -2.106 c -0.054,-1.242 -0.954,-1.548 -1.998,-1.548 -0.936,0 -1.656,0.378 -1.656,1.08 0,0.684 0.432,0.954 2.304,1.26 2.862,0.468 3.69,1.368 3.69,2.934 0,1.872 -1.728,2.88 -4.14,2.88 z"
       fill="#1f1c1a"
       id="path8" />
    <line
       x1="413.5"
       y1="66"
       x2="413.5"
       y2="536"
       stroke="#ffffff"
       stroke-opacity="0.3"
       id="line8" />
    <line
       x1="201.5"
       y1="66"
       x2="201.5"
       y2="536"
       stroke="#ffffff"
       stroke-opacity="0.3"
       id="line9" />
    <line
       x1="217.5"
       y1="66"
       x2="217.5"
       y2="536"
       stroke="#ffffff"
       stroke-opacity="0.3"
       id="line10" />
    <line
       x1="16.5"
       y1="536"
       x2="16.500099"
       y2="66"
       stroke="#ffffff"
       stroke-opacity="0.3"
       id="line11" />
    <rect
       x="414"
       y="66"
       width="16"
       height="470"
       fill="#ffffff"
       fill-opacity="0.06"
       id="rect11" />
    <rect
       x="202"
       y="66"
       width="16"
       height="470"
       fill="#ffffff"
       fill-opacity="0.06"
       id="rect12" />
    <rect
       x="16"
       y="535"
       width="16"
       height="470"
       transform="rotate(180,16,535)"
       fill="#ffffff"
       fill-opacity="0.06"
       id="rect13" />
  </g>
  <defs
     id="defs20">
    <linearGradient
       id="paint0_linear_424_1038"
       x1="16"
       y1="154"
       x2="412"
       y2="154"
       gradientUnits="userSpaceOnUse">
      <stop
         offset="0.488021"
         stop-color="white"
         id="stop13" />
      <stop
         offset="1"
         stop-color="#FF4135"
         stop-opacity="0"
         id="stop14" />
    </linearGradient>
    <linearGradient
       id="paint1_linear_424_1038"
       x1="16"
       y1="252"
       x2="412"
       y2="252"
       gradientUnits="userSpaceOnUse">
      <stop
         offset="0.488021"
         stop-color="white"
         id="stop15" />
      <stop
         offset="1"
         stop-color="#FF4135"
         stop-opacity="0"
         id="stop16" />
    </linearGradient>
    <linearGradient
       id="paint2_linear_424_1038"
       x1="16"
       y1="350"
       x2="412"
       y2="350"
       gradientUnits="userSpaceOnUse">
      <stop
         offset="0.5"
         stop-color="white"
         id="stop17" />
      <stop
         offset="1"
         stop-color="#FF4135"
         stop-opacity="0"
         id="stop18" />
    </linearGradient>
    <linearGradient
       id="paint3_linear_424_1038"
       x1="16"
       y1="448"
       x2="412"
       y2="448"
       gradientUnits="userSpaceOnUse">
      <stop
         offset="0.488021"
         stop-color="white"
         id="stop19" />
      <stop
         offset="1"
         stop-color="#FF4135"
         stop-opacity="0"
         id="stop20" />
    </linearGradient>
    <clipPath
       id="clip0_424_1038">
      <rect
         width="430"
         height="568"
         fill="#ffffff"
         transform="translate(0,0.735352)"
         id="rect20"
         x="0"
         y="0" />
    </clipPath>
    <clipPath
       clipPathUnits="userSpaceOnUse"
       id="clipPath21">
      <rect
         style="fill:none"
         id="rect22"
         width="429.64279"
         height="472.40582"
         x="0"
         y="64.8992" />
    </clipPath>
  </defs>
</svg>
