<svg width="1679" height="439" viewBox="0 0 1679 439" fill="none" xmlns="http://www.w3.org/2000/svg">
<line x1="117.5" y1="1" x2="117.5" y2="438" stroke="white" stroke-opacity="0.3"/>
<line x1="141.5" y1="1" x2="141.5" y2="438" stroke="white" stroke-opacity="0.3"/>
<line x1="259.5" y1="1" x2="259.5" y2="438" stroke="white" stroke-opacity="0.3"/>
<line x1="283.5" y1="1" x2="283.5" y2="438" stroke="white" stroke-opacity="0.3"/>
<line x1="401.5" y1="1" x2="401.5" y2="438" stroke="white" stroke-opacity="0.3"/>
<line x1="425.5" y1="1" x2="425.5" y2="438" stroke="white" stroke-opacity="0.3"/>
<line x1="543.5" y1="1" x2="543.5" y2="438" stroke="white" stroke-opacity="0.3"/>
<line x1="567.5" y1="1" x2="567.5" y2="438" stroke="white" stroke-opacity="0.3"/>
<line x1="685.5" y1="1" x2="685.5" y2="438" stroke="white" stroke-opacity="0.3"/>
<line x1="1110.5" y1="1" x2="1110.5" y2="438" stroke="white" stroke-opacity="0.3"/>
<line x1="1393.5" y1="1" x2="1393.5" y2="438" stroke="white" stroke-opacity="0.3"/>
<line x1="710.5" y1="1" x2="710.5" y2="438" stroke="white" stroke-opacity="0.3"/>
<line x1="1135.5" y1="1" x2="1135.5" y2="438" stroke="white" stroke-opacity="0.3"/>
<line x1="1418.5" y1="1" x2="1418.5" y2="438" stroke="white" stroke-opacity="0.3"/>
<line x1="828.5" y1="1" x2="828.5" y2="438" stroke="white" stroke-opacity="0.3"/>
<line x1="1253.5" y1="1" x2="1253.5" y2="438" stroke="white" stroke-opacity="0.3"/>
<line x1="1536.5" y1="1" x2="1536.5" y2="438" stroke="white" stroke-opacity="0.3"/>
<line x1="852.5" y1="1" x2="852.5" y2="438" stroke="white" stroke-opacity="0.3"/>
<line x1="1277.5" y1="1" x2="1277.5" y2="438" stroke="white" stroke-opacity="0.3"/>
<line x1="1560.5" y1="1" x2="1560.5" y2="438" stroke="white" stroke-opacity="0.3"/>
<line x1="970.5" y1="1" x2="970.5" y2="438" stroke="white" stroke-opacity="0.3"/>
<line x1="994.5" y1="1" x2="994.5" y2="438" stroke="white" stroke-opacity="0.3"/>
<line x1="1679" y1="0.5" x2="2" y2="0.499926" stroke="white" stroke-opacity="0.3" stroke-dasharray="2 2"/>
<line x1="1679" y1="23.5" x2="-0.000488358" y2="23.4999" stroke="white" stroke-opacity="0.3" stroke-dasharray="2 2"/>
<line x1="1679" y1="137.5" x2="-0.000488358" y2="137.5" stroke="white" stroke-opacity="0.3" stroke-dasharray="2 2"/>
<line x1="1679" y1="161.5" x2="-0.000488358" y2="161.5" stroke="white" stroke-opacity="0.3" stroke-dasharray="2 2"/>
<line x1="1679" y1="276.5" x2="-0.000488358" y2="276.5" stroke="white" stroke-opacity="0.3" stroke-dasharray="2 2"/>
<line x1="1679" y1="300.5" x2="-0.000488358" y2="300.5" stroke="white" stroke-opacity="0.3" stroke-dasharray="2 2"/>
<line x1="1679" y1="415.5" x2="-0.000488358" y2="415.5" stroke="white" stroke-opacity="0.3" stroke-dasharray="2 2"/>
<line x1="1679" y1="438.5" x2="-0.000488358" y2="438.5" stroke="white" stroke-opacity="0.3" stroke-dasharray="2 2"/>
<rect x="440" y="178" width="829" height="82" rx="12" fill="url(#paint0_linear_541_576)"/>
<rect x="720" y="318" width="829" height="82" rx="12" fill="url(#paint1_linear_541_576)"/>
<rect x="580" y="39" width="829" height="82" rx="12" fill="url(#paint2_linear_541_576)"/>
<rect x="1293" y="39" width="382" height="82" rx="12" fill="url(#paint3_linear_541_576)"/>
<rect x="156" y="39" width="382" height="82" rx="12" fill="url(#paint4_linear_541_576)"/>
<rect x="117.793" y="1" width="23" height="437" fill="white" fill-opacity="0.06"/>
<rect x="259.793" y="1" width="23" height="437" fill="white" fill-opacity="0.06"/>
<rect x="401.793" y="1" width="23" height="437" fill="white" fill-opacity="0.06"/>
<rect x="544.793" y="1" width="23" height="437" fill="white" fill-opacity="0.06"/>
<rect x="686.793" y="1" width="23" height="437" fill="white" fill-opacity="0.06"/>
<rect x="828.793" y="1" width="23" height="437" fill="white" fill-opacity="0.06"/>
<rect x="970.793" y="1" width="23" height="437" fill="white" fill-opacity="0.06"/>
<rect x="1110.79" y="1" width="24" height="437" fill="white" fill-opacity="0.06"/>
<rect x="1253.79" y="1" width="24" height="437" fill="white" fill-opacity="0.06"/>
<rect x="1393.79" y="1" width="24" height="437" fill="white" fill-opacity="0.06"/>
<rect x="1536.79" y="1" width="24" height="437" fill="white" fill-opacity="0.06"/>
<defs>
<linearGradient id="paint0_linear_541_576" x1="440" y1="219" x2="1269" y2="219" gradientUnits="userSpaceOnUse">
<stop stop-color="white"/>
<stop offset="0.695" stop-color="#FF4135"/>
<stop offset="1" stop-color="#FF4135" stop-opacity="0"/>
</linearGradient>
<linearGradient id="paint1_linear_541_576" x1="720" y1="359" x2="1549" y2="359" gradientUnits="userSpaceOnUse">
<stop stop-color="white"/>
<stop offset="0.695" stop-color="#FF4135"/>
<stop offset="1" stop-color="#FF4135" stop-opacity="0"/>
</linearGradient>
<linearGradient id="paint2_linear_541_576" x1="580" y1="80" x2="1409" y2="80" gradientUnits="userSpaceOnUse">
<stop stop-color="white"/>
<stop offset="0.8" stop-color="#FF4135"/>
<stop offset="1" stop-color="#FF4135" stop-opacity="0"/>
</linearGradient>
<linearGradient id="paint3_linear_541_576" x1="1293" y1="80" x2="1675" y2="80" gradientUnits="userSpaceOnUse">
<stop stop-color="white"/>
<stop offset="0.775" stop-color="#FF4135"/>
<stop offset="1" stop-color="#FF4135" stop-opacity="0"/>
</linearGradient>
<linearGradient id="paint4_linear_541_576" x1="156" y1="80" x2="538" y2="80" gradientUnits="userSpaceOnUse">
<stop stop-color="white"/>
<stop offset="0.775" stop-color="#FF4135"/>
<stop offset="1" stop-color="#FF4135" stop-opacity="0"/>
</linearGradient>
</defs>
</svg>
