<svg width="434" height="598" viewBox="0 0 434 598" fill="none" xmlns="http://www.w3.org/2000/svg">
    <path
        d="M5.33112 384.125L1.83246 382.097L2.33392 381.232L2.07841 381.084L2.33331 380.937L1.83241 380.071L5.33106 378.046L5.83196 378.912L9.33062 376.887L8.82972 376.021L12.3284 373.997L12.8293 374.862L16.3279 372.837L15.827 371.972L19.3257 369.947L19.8266 370.812L23.3253 368.788L22.8244 367.922L26.323 365.897L26.8239 366.763L30.3226 364.738L29.8217 363.873L33.3203 361.848L33.8212 362.713L37.3199 360.688L36.819 359.823L40.3177 357.798L40.8186 358.664L44.3172 356.639L43.8163 355.773L47.315 353.748L47.8159 354.614L51.3145 352.589L50.8136 351.724L54.3123 349.699L54.8132 350.564L58.3119 348.539L57.811 347.674L61.3096 345.649L61.8105 346.515L65.3092 344.49L64.8083 343.624L68.3069 341.599L68.8078 342.465L72.3065 340.44L71.8056 339.575L75.3043 337.55L75.8052 338.415L79.3038 336.39L78.8029 335.525L82.3016 333.5L82.8025 334.366L86.3011 332.341L85.8002 331.475L89.2989 329.45L89.7998 330.316L93.2985 328.291L92.7976 327.426L96.2962 325.401L96.7971 326.266L100.296 324.242L99.7949 323.376L103.294 321.351L103.794 322.217L107.293 320.192L106.792 319.326L110.291 317.302L110.792 318.167L114.29 316.142L113.79 315.277L117.288 313.252L117.789 314.117L121.288 312.093L120.787 311.227L124.285 309.202L124.786 310.068L128.285 308.043L127.784 307.177L131.283 305.153L131.784 306.018L135.282 303.993L134.781 303.128L138.28 301.103L138.781 301.968L142.28 299.944L141.779 299.078L145.277 297.053L145.778 297.919L149.277 295.894L148.776 295.028L152.275 293.004L152.776 293.869L156.274 291.844L155.773 290.979L159.272 288.954L159.773 289.82L163.272 287.795L162.771 286.929L166.269 284.904L166.77 285.77L170.269 283.745L169.768 282.88L173.267 280.855L173.768 281.72L177.266 279.695L176.765 278.83L180.264 276.805L180.765 277.671L184.264 275.646L183.763 274.78L187.261 272.755L187.762 273.621L191.261 271.596L190.76 270.731L194.259 268.706L194.76 269.571L198.258 267.546L197.757 266.681L201.256 264.656L201.757 265.522L205.256 263.497L204.755 262.631L208.253 260.606L208.754 261.472L212.253 259.447L211.752 258.582L215.251 256.557L215.752 257.422L217 256.7L218.248 257.422L218.749 256.557L222.248 258.582L221.747 259.447L225.246 261.472L225.747 260.606L229.245 262.631L228.744 263.497L232.243 265.522L232.744 264.656L236.243 266.681L235.742 267.546L239.24 269.571L239.741 268.706L243.24 270.731L242.739 271.596L246.238 273.621L246.739 272.755L250.237 274.78L249.736 275.646L253.235 277.671L253.736 276.805L257.235 278.83L256.734 279.695L260.232 281.72L260.733 280.855L264.232 282.88L263.731 283.745L267.23 285.77L267.73 284.904L271.229 286.929L270.728 287.795L274.227 289.819L274.728 288.954L278.226 290.979L277.726 291.844L281.224 293.869L281.725 293.004L285.224 295.028L284.723 295.894L288.222 297.919L288.722 297.053L292.221 299.078L291.72 299.944L295.219 301.968L295.72 301.103L299.218 303.128L298.718 303.993L302.216 306.018L302.717 305.153L306.216 307.177L305.715 308.043L309.214 310.068L309.714 309.202L313.213 311.227L312.712 312.093L316.211 314.117L316.712 313.252L320.21 315.277L319.709 316.142L323.208 318.167L323.709 317.302L327.208 319.326L326.707 320.192L330.205 322.217L330.706 321.351L334.205 323.376L333.704 324.242L337.203 326.266L337.704 325.401L341.202 327.426L340.701 328.291L344.2 330.316L344.701 329.45L348.2 331.475L347.699 332.341L351.197 334.366L351.698 333.5L355.197 335.525L354.696 336.39L358.195 338.415L358.696 337.55L362.194 339.575L361.693 340.44L365.192 342.465L365.693 341.599L369.192 343.624L368.691 344.49L372.189 346.515L372.69 345.649L376.189 347.674L375.688 348.539L379.187 350.564L379.688 349.699L383.186 351.724L382.685 352.589L386.184 354.614L386.685 353.748L390.184 355.773L389.683 356.639L393.181 358.664L393.682 357.798L397.181 359.823L396.68 360.688L400.179 362.713L400.68 361.848L404.178 363.872L403.677 364.738L407.176 366.763L407.677 365.897L411.176 367.922L410.675 368.788L414.173 370.812L414.674 369.947L418.173 371.972L417.672 372.837L421.171 374.862L421.672 373.997L425.17 376.021L424.669 376.887L428.168 378.912L428.669 378.046L432.167 380.071L431.667 380.937L431.922 381.084L431.666 381.232L432.168 382.097L428.669 384.125L428.167 383.26L424.669 385.288L425.17 386.153L421.672 388.181L421.17 387.316L417.671 389.344L418.173 390.209L414.674 392.237L414.173 391.371L410.674 393.399L411.176 394.264L407.677 396.292L407.175 395.427L403.677 397.455L404.178 398.32L400.68 400.348L400.178 399.483L396.679 401.511L397.181 402.376L393.682 404.404L393.181 403.538L389.682 405.566L390.184 406.431L386.685 408.459L386.184 407.594L382.685 409.622L383.186 410.487L379.688 412.515L379.186 411.65L375.688 413.678L376.189 414.543L372.69 416.571L372.189 415.705L368.69 417.733L369.192 418.598L365.693 420.626L365.192 419.761L361.693 421.789L362.194 422.654L358.696 424.682L358.194 423.817L354.696 425.845L355.197 426.71L351.698 428.738L351.197 427.872L347.698 429.9L348.2 430.765L344.701 432.793L344.2 431.928L340.701 433.956L341.202 434.821L337.704 436.849L337.202 435.984L333.704 438.012L334.205 438.877L330.706 440.905L330.205 440.039L326.706 442.067L327.208 442.932L323.709 444.96L323.208 444.095L319.709 446.123L320.21 446.988L316.712 449.016L316.21 448.151L312.712 450.179L313.213 451.044L309.714 453.072L309.213 452.206L305.714 454.234L306.216 455.099L302.717 457.127L302.216 456.262L298.717 458.29L299.218 459.155L295.72 461.183L295.218 460.318L291.72 462.346L292.221 463.211L288.722 465.239L288.221 464.373L284.722 466.401L285.224 467.266L281.725 469.294L281.224 468.429L277.725 470.457L278.227 471.322L274.728 473.35L274.226 472.485L270.728 474.512L271.229 475.378L267.731 477.405L267.229 476.54L263.73 478.568L264.232 479.433L260.733 481.461L260.232 480.596L256.733 482.624L257.235 483.489L253.736 485.517L253.234 484.652L249.736 486.679L250.237 487.545L246.739 489.572L246.237 488.707L242.738 490.735L243.24 491.6L239.741 493.628L239.24 492.763L235.741 494.791L236.243 495.656L232.744 497.684L232.242 496.819L228.744 498.846L229.245 499.712L225.747 501.739L225.245 500.874L221.747 502.902L222.248 503.767L218.749 505.795L218.248 504.93L217 505.653L215.752 504.93L215.251 505.795L211.752 503.767L212.254 502.902L208.755 500.874L208.253 501.74L204.755 499.712L205.256 498.847L201.758 496.819L201.256 497.684L197.757 495.656L198.259 494.791L194.76 492.763L194.259 493.628L190.76 491.6L191.262 490.735L187.763 488.707L187.261 489.573L183.763 487.545L184.264 486.68L180.766 484.652L180.264 485.517L176.765 483.489L177.267 482.624L173.768 480.596L173.267 481.461L169.768 479.433L170.27 478.568L166.771 476.54L166.269 477.406L162.771 475.378L163.272 474.513L159.774 472.485L159.272 473.35L155.773 471.322L156.275 470.457L152.776 468.429L152.275 469.294L148.776 467.266L149.278 466.401L145.779 464.373L145.277 465.239L141.779 463.211L142.28 462.346L138.782 460.318L138.28 461.183L134.781 459.155L135.283 458.29L131.784 456.262L131.283 457.127L127.784 455.099L128.286 454.234L124.787 452.206L124.286 453.072L120.787 451.044L121.288 450.178L117.79 448.151L117.288 449.016L113.79 446.988L114.291 446.123L110.792 444.095L110.291 444.96L106.792 442.932L107.294 442.067L103.795 440.039L103.294 440.905L99.7949 438.877L100.296 438.012L96.7977 435.984L96.2962 436.849L92.7976 434.821L93.299 433.956L89.8004 431.928L89.2989 432.793L85.8003 430.765L86.3017 429.9L82.8031 427.872L82.3016 428.738L78.8029 426.71L79.3044 425.845L75.8057 423.817L75.3043 424.682L71.8056 422.654L72.3071 421.789L68.8084 419.761L68.307 420.626L64.8083 418.598L65.3098 417.733L61.8111 415.705L61.3097 416.571L57.811 414.543L58.3125 413.678L54.8138 411.65L54.3123 412.515L50.8137 410.487L51.3151 409.622L47.8165 407.594L47.315 408.459L43.8164 406.431L44.3178 405.566L40.8192 403.538L40.3177 404.404L36.8191 402.376L37.3205 401.511L33.8219 399.483L33.3204 400.348L29.8217 398.32L30.3232 397.455L26.8245 395.427L26.3231 396.292L22.8244 394.264L23.3259 393.399L19.8272 391.371L19.3258 392.237L15.8271 390.209L16.3286 389.344L12.8299 387.316L12.3284 388.181L8.82978 386.153L9.33124 385.288L5.83258 383.26L5.33112 384.125Z"
        stroke="#1C1917" stroke-opacity="0.1" stroke-width="2" stroke-dasharray="4 4" />
    <path d="M217 423.729L2.07841 299.16L217 174.776L431.922 299.16L217 423.729Z"
        stroke="url(#paint0_linear_441_1234)" stroke-width="2" />
    <path d="M217 341.486L2.07841 216.917L217 92.533L431.922 216.917L217 341.486Z"
        fill="url(#paint1_linear_441_1234)" stroke="url(#paint2_linear_441_1234)" stroke-width="2" />
    <defs>
        <linearGradient id="paint0_linear_441_1234" x1="108.542" y1="190.701" x2="325.458"
            y2="407.618" gradientUnits="userSpaceOnUse">
            <stop stop-color="#FF4135" />
            <stop offset="1" stop-color="#B30137" />
        </linearGradient>
        <linearGradient id="paint1_linear_441_1234" x1="108.542" y1="108.458" x2="325.458"
            y2="325.375" gradientUnits="userSpaceOnUse">
            <stop stop-color="#FF4135" />
            <stop offset="1" stop-color="#B30137" />
        </linearGradient>
        <linearGradient id="paint2_linear_441_1234" x1="108.542" y1="108.458" x2="325.458"
            y2="325.375" gradientUnits="userSpaceOnUse">
            <stop stop-color="#FF4135" />
            <stop offset="1" stop-color="#B30137" />
        </linearGradient>
    </defs>
</svg>