<?xml version="1.0" encoding="UTF-8" standalone="no"?>
<!DOCTYPE svg PUBLIC "-//W3C//DTD SVG 20010904//EN"
              "http://www.w3.org/TR/2001/REC-SVG-20010904/DTD/svg10.dtd">

<svg xmlns="http://www.w3.org/2000/svg"
     width="11.68in" height="8.27in"
     viewBox="0 0 1168 827">
  <path id="Selection #1"
        fill="none" stroke="black" stroke-width="1"
        d="M 691.00,420.00
           C 687.80,417.47 686.30,415.89 684.81,412.00
             681.85,404.24 683.67,394.92 690.10,389.39
             698.47,382.20 713.98,383.65 719.00,394.00
             719.00,394.00 704.00,394.00 704.00,394.00
             704.00,394.00 704.00,401.00 704.00,401.00
             704.00,401.00 723.00,401.00 723.00,401.00
             722.93,408.43 722.34,415.32 715.00,419.00
             715.00,419.00 715.00,407.00 715.00,407.00
             715.00,407.00 708.00,407.00 708.00,407.00
             708.00,407.00 708.00,424.00 708.00,424.00
             708.00,424.00 698.00,424.00 698.00,424.00
             698.00,424.00 698.00,407.00 698.00,407.00
             698.00,407.00 691.00,407.00 691.00,407.00
             691.00,407.00 691.00,420.00 691.00,420.00 Z
           M 694.09,394.91
           C 689.25,397.71 693.36,401.02 695.69,399.83
             697.78,398.76 698.12,395.77 694.09,394.91 Z
           M 491.00,443.00
           C 481.96,443.00 462.19,444.67 455.04,440.01
             443.64,432.58 444.68,410.97 456.00,404.00
             462.80,399.82 475.94,401.00 484.00,401.00
             484.00,401.00 484.00,408.00 484.00,408.00
             477.91,408.00 466.06,407.06 461.04,410.09
             452.93,414.97 452.14,428.43 460.10,433.86
             466.51,438.22 482.98,437.00 491.00,437.00
             491.00,437.00 491.00,443.00 491.00,443.00 Z
           M 492.00,401.00
           C 492.00,401.00 515.00,401.00 515.00,401.00
             519.48,401.00 524.90,400.58 529.00,402.57
             538.35,407.11 538.68,421.27 529.00,426.00
             529.00,426.00 538.00,443.00 538.00,443.00
             538.00,443.00 530.18,441.98 530.18,441.98
             530.18,441.98 519.68,429.02 519.68,429.02
             519.68,429.02 503.00,428.00 503.00,428.00
             503.00,428.00 503.00,421.00 503.00,421.00
             507.16,421.00 519.77,421.39 522.98,420.35
             526.09,419.35 529.27,416.75 528.16,413.10
             526.76,408.53 520.93,408.06 517.00,408.00
             517.00,408.00 492.00,408.00 492.00,408.00
             492.00,408.00 492.00,401.00 492.00,401.00 Z
           M 542.00,443.00
           C 542.00,443.00 557.25,411.00 557.25,411.00
             559.17,407.14 560.85,401.10 566.00,401.10
             571.15,401.10 572.83,407.14 574.75,411.00
             574.75,411.00 590.00,443.00 590.00,443.00
             590.00,443.00 581.00,443.00 581.00,443.00
             581.00,443.00 566.00,410.00 566.00,410.00
             566.00,410.00 551.00,443.00 551.00,443.00
             551.00,443.00 542.00,443.00 542.00,443.00 Z
           M 585.00,401.00
           C 585.00,401.00 631.00,401.00 631.00,401.00
             631.00,401.00 631.00,408.00 631.00,408.00
             631.00,408.00 585.00,408.00 585.00,408.00
             585.00,408.00 585.00,401.00 585.00,401.00 Z
           M 636.00,401.00
           C 636.00,401.00 672.00,401.00 672.00,401.00
             672.00,401.00 672.00,408.00 672.00,408.00
             672.00,408.00 636.00,408.00 636.00,408.00
             636.00,408.00 636.00,401.00 636.00,401.00 Z
           M 651.00,417.00
           C 651.00,417.00 658.00,417.00 658.00,417.00
             658.00,417.00 658.00,443.00 658.00,443.00
             658.00,443.00 651.00,443.00 651.00,443.00
             651.00,443.00 651.00,417.00 651.00,417.00 Z
           M 602.00,419.00
           C 602.00,419.00 631.00,419.00 631.00,419.00
             631.00,419.00 631.00,425.00 631.00,425.00
             631.00,425.00 609.00,425.00 609.00,425.00
             609.00,425.00 609.00,443.00 609.00,443.00
             609.00,443.00 602.00,443.00 602.00,443.00
             602.00,443.00 602.00,419.00 602.00,419.00 Z" />
</svg>
