<?xml version="1.0" encoding="UTF-8" standalone="no"?>
<svg
   xmlns:dc="http://purl.org/dc/elements/1.1/"
   xmlns:cc="http://creativecommons.org/ns#"
   xmlns:rdf="http://www.w3.org/1999/02/22-rdf-syntax-ns#"
   xmlns:svg="http://www.w3.org/2000/svg"
   xmlns="http://www.w3.org/2000/svg"
   viewBox="0 0 594.14667 212.41333"
   height="212.41333"
   width="594.14667"
   xml:space="preserve"
   id="svg2"
   version="1.1"><metadata
     id="metadata8"><rdf:RDF><cc:Work
         rdf:about=""><dc:format>image/svg+xml</dc:format><dc:type
           rdf:resource="http://purl.org/dc/dcmitype/StillImage" /></cc:Work></rdf:RDF></metadata><defs
     id="defs6" /><g
     transform="matrix(1.3333333,0,0,-1.3333333,0,212.41333)"
     id="g10"><g
       transform="scale(0.1)"
       id="g12"><path
         id="path14"
         style="fill:#c00d0d;fill-opacity:1;fill-rule:nonzero;stroke:none"
         d="m 3675.32,1046.98 v 91.09 h 193.76 c -42.41,62.97 -114.35,104.38 -195.99,104.38 -130.41,0 -236.12,-105.79 -236.12,-236.1 0,-72.655 32.85,-137.498 84.43,-180.936 V 989.32 h 96.3 V 776.977 c 17.8,-4.375 36.28,-6.719 55.39,-6.719 21.12,0 41.48,2.969 60.96,8.125 V 989.32 h 96.3 V 830.57 c 48.3,43.125 78.87,105.938 78.87,175.78 0,13.91 -1.44,27.35 -3.75,40.63 z m -54.89,47.03 c 0,-28.28 -22.94,-51.25 -51.25,-51.25 -28.3,0 -51.25,22.97 -51.25,51.25 0,28.44 22.95,51.25 51.25,51.25 28.31,0 51.25,-22.81 51.25,-51.25" /><path
         id="path16"
         style="fill:#000000;fill-opacity:1;fill-rule:nonzero;stroke:none"
         d="M 3312.38,924.984 V 1048.07 H 2873.11 V 924.984 Z m -1071.48,0 h 549.99 V 1048.07 H 2240.9 Z m 51.24,-380.793 -229.63,503.879 H 1932.22 L 1701.87,544.191 h 137.49 l 157.65,372.157 157.64,-372.157 z m -637.76,0 -107.97,187.161 c 49.67,28.789 76.3,79.175 76.3,145.402 0,105.816 -67.66,171.316 -185.72,171.316 H 1093.03 V 928.695 h 336.76 c 43.91,0 68.39,-13.07 68.39,-51.941 0,-38.152 -24.48,-51.219 -68.39,-51.219 h -207.5 V 706.156 h 205.35 l 89.26,-161.965 z m -847.384,0 H 1090.62 V 660.195 H 806.996 c -73.422,0 -129.57,27.243 -129.57,135.938 0,107.976 56.148,135.937 129.57,135.937 h 170.231 v 116 H 806.996 c -178.519,0 -265.617,-90.695 -265.617,-251.937 0,-161.961 87.098,-251.942 265.617,-251.942 z M 2738.23,825.266 H 2409.22 V 544.191 h 130.29 v 162.305 h 198.72 z m 414.92,0.226 H 3022.86 V 544.191 h 130.29 v 281.301" /><path
         id="path18"
         style="fill:#000000;fill-opacity:1;fill-rule:nonzero;stroke:none"
         d="m 1294.42,182.922 h 12.4 v 91.148 l 41.07,-60.23 h 0.65 l 41.06,60.398 v -91.316 h 12.73 v 112.726 h -12.89 l -41.06,-61.519 -41.07,61.519 h -12.89 z m 198.9,0 h 13.04 l 13.37,29.789 h 61.36 l 13.2,-29.789 h 13.69 l -51.37,113.539 h -11.92 z m 31.4,41.387 25.77,57.332 25.61,-57.332 z m 174.25,-41.387 h 12.73 v 30.277 l 23.99,24.321 43.32,-54.598 h 15.95 l -50.41,63.449 48.31,49.277 h -16.42 L 1711.7,228.34 v 67.308 h -12.73 z m 185.71,0 h 82.29 v 11.598 h -69.57 v 39.449 h 61.52 v 11.601 h -61.52 v 38.489 h 68.77 v 11.589 h -81.49 z m 216.3,-1.613 c 22.39,0 38.49,12.562 38.49,31.89 v 0.321 c 0,17.23 -11.59,26.41 -36.72,31.89 -24.8,5.309 -30.6,11.27 -30.6,21.899 v 0.32 c 0,10.152 9.34,18.203 24,18.203 11.59,0 22.06,-3.703 32.53,-12.242 l 7.41,9.82 c -11.44,9.18 -23.19,13.852 -39.62,13.852 -21.42,0 -37.04,-13.043 -37.04,-30.762 v -0.32 c 0,-18.52 11.92,-26.891 37.85,-32.532 23.67,-4.988 29.31,-10.949 29.31,-21.418 v -0.32 c 0,-11.109 -9.99,-19.172 -25.13,-19.172 -15.62,0 -26.89,5.321 -38.65,15.953 l -7.89,-9.339 c 13.53,-12.082 28.18,-18.043 46.06,-18.043 z m 289.88,0 c 22.39,0 38.49,12.562 38.49,31.89 v 0.321 c 0,17.23 -11.59,26.41 -36.71,31.89 -24.81,5.309 -30.6,11.27 -30.6,21.899 v 0.32 c 0,10.152 9.34,18.203 23.99,18.203 11.6,0 22.07,-3.703 32.53,-12.242 l 7.41,9.82 c -11.43,9.18 -23.19,13.852 -39.62,13.852 -21.41,0 -37.04,-13.043 -37.04,-30.762 v -0.32 c 0,-18.52 11.92,-26.891 37.85,-32.532 23.67,-4.988 29.31,-10.949 29.31,-21.418 v -0.32 c 0,-11.109 -9.98,-19.172 -25.12,-19.172 -15.62,0 -26.9,5.321 -38.65,15.953 l -7.9,-9.339 c 13.53,-12.082 28.19,-18.043 46.06,-18.043 z m 134.49,1.613 h 82.3 v 11.598 h -69.57 v 39.449 h 61.52 v 11.601 h -61.52 v 38.489 h 68.76 v 11.589 h -81.49 z m 175.79,0 h 12.4 v 92.437 l 72.79,-92.437 h 10.15 v 112.726 h -12.4 v -90.339 l -71.02,90.339 h -11.92 z m 235.58,-1.613 c 22.38,0 38.49,12.562 38.49,31.89 v 0.321 c 0,17.23 -11.6,26.41 -36.72,31.89 -24.8,5.309 -30.6,11.27 -30.6,21.899 v 0.32 c 0,10.152 9.34,18.203 24,18.203 11.59,0 22.06,-3.703 32.53,-12.242 l 7.41,9.82 c -11.44,9.18 -23.2,13.852 -39.62,13.852 -21.42,0 -37.04,-13.043 -37.04,-30.762 v -0.32 c 0,-18.52 11.91,-26.891 37.84,-32.532 23.68,-4.988 29.31,-10.949 29.31,-21.418 v -0.32 c 0,-11.109 -9.98,-19.172 -25.12,-19.172 -15.62,0 -26.89,5.321 -38.65,15.953 l -7.89,-9.339 c 13.53,-12.082 28.18,-18.043 46.06,-18.043 z m 134.49,1.613 h 82.29 v 11.598 h -69.57 v 39.449 h 61.52 v 11.601 h -61.52 v 38.489 h 68.77 v 11.589 h -81.49 V 182.922" /><path
         id="path20"
         style="fill:#c00d0d;fill-opacity:1;fill-rule:nonzero;stroke:none"
         d="m 875.867,182.922 h 31.242 v 112.726 h -31.242 z m 147.033,0 h 31.24 v 85.359 h 33.82 v 27.367 h -98.718 v -27.367 h 33.658 v -85.359" /></g></g></svg>