<?xml version="1.0" standalone="no"?>
<!DOCTYPE svg PUBLIC "-//W3C//DTD SVG 20010904//EN"
 "http://www.w3.org/TR/2001/REC-SVG-20010904/DTD/svg10.dtd">
<svg version="1.0" xmlns="http://www.w3.org/2000/svg"
 width="446.000000pt" height="159.000000pt" viewBox="0 0 446.000000 159.000000"
 preserveAspectRatio="xMidYMid meet">
<metadata>
Created by potrace 1.16, written by Peter Selinger 2001-2019
</metadata>
<g transform="translate(0.000000,159.000000) scale(0.100000,-0.100000)"
fill="#000000" stroke="none">
<path d="M3573 1216 c-116 -54 -163 -198 -103 -316 10 -20 26 -42 34 -49 14
-12 16 -5 16 63 l0 76 50 0 50 0 0 -104 c0 -103 0 -104 26 -110 14 -4 41 -4
60 0 l34 6 0 104 0 104 50 0 49 0 3 -77 3 -78 29 49 c21 35 31 66 34 108 l4
58 -116 0 -116 0 0 45 0 45 98 0 97 1 -44 39 c-71 65 -166 78 -258 36z m23
-74 c6 -4 16 -17 23 -29 9 -18 7 -26 -13 -50 -24 -27 -26 -27 -53 -13 -37 21
-43 62 -11 84 25 18 37 19 54 8z"/>
</g>
</svg>
