<svg xmlns="http://www.w3.org/2000/svg" xmlns:xlink="http://www.w3.org/1999/xlink" version="1.1" id="Calque_1" x="0px" y="0px" style="enable-background:new 0 0 595.28 841.89;" xml:space="preserve" viewBox="199 400.89 197.62 41.37">
<style type="text/css">
	.st0{fill:#FFFFFF;}
</style>
<g>
	<path class="st0" d="M213.91,416.66h10.58v-4.22h-10.58c-9.63,0-14.91,5.62-14.91,14.91c0,9.33,4.94,14.91,14.91,14.91h15.93v-4.22   h-15.93c-7.58,0-10.52-3.66-10.52-10.69C203.39,420.36,206.71,416.66,213.91,416.66L213.91,416.66z"/>
	<path class="st0" d="M263.73,442.26l-7.5-11.8c3.75-1.24,6.01-4.09,6.01-8.65c0-6.35-4.39-9.37-10.86-9.37h-20.22v4.22h20.22   c4.17,0,6.52,1.7,6.52,5.15c0,3.41-2.34,5.11-6.52,5.11h-12.57v4.22h12.57c0.08,0,0.21,0,0.34,0l7.03,11.12H263.73L263.73,442.26z"/>
	<polygon class="st0" points="300.86,442.26 286.46,412.44 281.86,412.44 267.46,442.26 272.32,442.26 284.16,417.04 295.96,442.26    300.86,442.26  "/>
	<path class="st0" d="M310.28,442.26h4.18v-12.99h16.2v-4.22h-20.37V442.26L310.28,442.26z M298.48,412.44v4.22h32.16v-4.22H298.48   L298.48,412.44z"/>
	<path class="st0" d="M334.82,412.44v4.22h25.59v-4.22H334.82L334.82,412.44z M345.51,442.26h4.22v-18.4h-4.22V442.26L345.51,442.26   z"/>
	<path class="st0" d="M382.94,412.33V407h11.33c-2.48-3.69-6.69-6.11-11.46-6.11c-7.63,0-13.81,6.19-13.81,13.81   c0,4.25,1.92,8.05,4.94,10.59v-9.59h5.63v12.41c1.04,0.26,2.12,0.4,3.24,0.4c1.24,0,2.43-0.17,3.57-0.48V415.7h5.63v9.29   c2.83-2.53,4.61-6.2,4.61-10.29c0-0.81-0.09-1.6-0.22-2.38H382.94L382.94,412.33z M379.73,409.58c0,1.65-1.34,2.99-3,2.99   c-1.65,0-3-1.34-3-2.99c0-1.66,1.34-3,3-3C378.39,406.58,379.73,407.91,379.73,409.58L379.73,409.58z"/>
</g>
</svg>