<?xml version="1.0" encoding="UTF-8" standalone="no"?>
<!DOCTYPE svg PUBLIC "-//W3C//DTD SVG 20010904//EN"
              "http://www.w3.org/TR/2001/REC-SVG-20010904/DTD/svg10.dtd">

<svg xmlns="http://www.w3.org/2000/svg"
     width="11.68in" height="8.27in"
     viewBox="0 0 1168 827">
  <path id="Selection"
        fill="none" stroke="black" stroke-width="1"
        d="M 0.00,0.00
           C 0.00,0.00 1168.00,0.00 1168.00,0.00
             1168.00,0.00 1168.00,827.00 1168.00,827.00
             1168.00,827.00 0.00,827.00 0.00,827.00
             0.00,827.00 0.00,0.00 0.00,0.00 Z
           M 719.00,394.00
           C 710.34,376.59 681.36,386.06 683.34,406.00
             683.94,412.07 686.27,416.26 691.00,420.00
             691.00,420.00 691.00,407.00 691.00,407.00
             691.00,407.00 698.00,407.00 698.00,407.00
             698.00,407.00 698.00,424.00 698.00,424.00
             698.00,424.00 708.00,424.00 708.00,424.00
             708.00,424.00 708.00,407.00 708.00,407.00
             708.00,407.00 715.00,407.00 715.00,407.00
             715.00,407.00 715.00,419.00 715.00,419.00
             721.99,415.36 725.18,403.81 720.69,401.60
             718.74,400.64 706.95,401.00 704.00,401.00
             704.00,401.00 704.00,394.00 704.00,394.00
             704.00,394.00 719.00,394.00 719.00,394.00 Z
           M 484.00,401.00
           C 475.95,401.00 462.80,399.82 456.00,404.00
             444.56,411.04 443.99,432.21 455.09,439.87
             462.32,444.85 481.84,443.00 491.00,443.00
             491.00,443.00 491.00,437.00 491.00,437.00
             483.21,437.00 466.32,438.13 460.10,433.99
             452.06,428.64 452.84,414.88 461.02,410.09
             466.18,407.06 477.79,408.00 484.00,408.00
             484.00,408.00 484.00,401.00 484.00,401.00 Z
           M 529.00,426.00
           C 538.30,421.35 538.22,407.90 529.96,403.14
             526.80,401.31 522.56,401.05 519.00,401.00
             519.00,401.00 492.00,401.00 492.00,401.00
             492.00,401.00 492.00,408.00 492.00,408.00
             492.00,408.00 516.00,408.00 516.00,408.00
             520.38,408.01 526.61,407.71 528.16,413.04
             529.22,416.71 526.29,419.64 522.98,420.79
             522.98,420.79 503.00,420.79 503.00,420.79
             503.00,420.79 503.00,428.00 503.00,428.00
             503.00,428.00 519.79,429.02 519.79,429.02
             519.79,429.02 530.32,441.98 530.32,441.98
             530.32,441.98 538.00,443.00 538.00,443.00
             538.00,443.00 529.00,426.00 529.00,426.00 Z
           M 590.00,443.00
           C 590.00,443.00 574.75,411.00 574.75,411.00
             572.83,407.14 571.15,401.10 566.00,401.10
             560.86,401.10 559.16,407.14 557.25,411.00
             557.25,411.00 542.00,443.00 542.00,443.00
             542.00,443.00 549.61,441.98 549.61,441.98
             549.61,441.98 555.14,433.00 555.14,433.00
             555.14,433.00 565.00,410.00 565.00,410.00
             565.00,410.00 567.00,410.00 567.00,410.00
             567.00,410.00 576.42,432.00 576.42,432.00
             576.42,432.00 582.39,441.98 582.39,441.98
             582.39,441.98 590.00,443.00 590.00,443.00 Z
           M 631.00,401.00
           C 631.00,401.00 585.00,401.00 585.00,401.00
             585.00,401.00 585.00,408.00 585.00,408.00
             585.00,408.00 631.00,408.00 631.00,408.00
             631.00,408.00 631.00,401.00 631.00,401.00 Z
           M 672.00,401.00
           C 672.00,401.00 636.00,401.00 636.00,401.00
             636.00,401.00 636.00,408.00 636.00,408.00
             636.00,408.00 672.00,408.00 672.00,408.00
             672.00,408.00 672.00,401.00 672.00,401.00 Z
           M 658.00,417.00
           C 658.00,417.00 651.00,417.00 651.00,417.00
             651.00,417.00 651.00,443.00 651.00,443.00
             651.00,443.00 658.00,443.00 658.00,443.00
             658.00,443.00 658.00,417.00 658.00,417.00 Z
           M 631.00,419.00
           C 631.00,419.00 602.00,419.00 602.00,419.00
             602.00,419.00 602.00,443.00 602.00,443.00
             602.00,443.00 609.00,443.00 609.00,443.00
             609.00,443.00 609.00,425.00 609.00,425.00
             609.00,425.00 631.00,425.00 631.00,425.00
             631.00,425.00 631.00,419.00 631.00,419.00 Z" />
</svg>
