<svg xmlns="http://www.w3.org/2000/svg" xmlns:xlink="http://www.w3.org/1999/xlink" version="1.1" id="Calque_1" x="0px" y="0px" style="enable-background:new 0 0 595.28 841.89;" xml:space="preserve" viewBox="191 399.89 213.08 41.37">
<style type="text/css">
	.st0{fill:#FFFFFF;}
</style>
<g>
	<polygon class="st0" points="309.55,441.26 295.15,411.44 290.55,411.44 276.15,441.26 281.01,441.26 292.85,416.04 304.65,441.26    309.55,441.26  "/>
	<path class="st0" d="M317.87,441.26h4.17v-12.99h16.2v-4.22h-20.37V441.26L317.87,441.26z M306.07,411.44v4.22h32.16v-4.22H306.07   L306.07,411.44z"/>
	<path class="st0" d="M342.42,411.44v4.22h25.6v-4.22H342.42L342.42,411.44z M353.11,441.26h4.22v-18.4h-4.22V441.26L353.11,441.26z   "/>
	<path class="st0" d="M270.5,441.26l-7.5-11.8c3.75-1.24,6.01-4.09,6.01-8.65c0-6.35-4.39-9.37-10.86-9.37h-20.22v4.22h20.22   c4.17,0,6.52,1.7,6.52,5.15c0,3.41-2.34,5.11-6.52,5.11h-12.56v4.22h12.56c0.08,0,0.21,0,0.34,0l7.03,11.12H270.5L270.5,441.26z"/>
	<path class="st0" d="M202.8,428.26h14.19v-4.22H202.8V428.26L202.8,428.26z M217.54,411.44H191v29.82h26.54   c10.61,0,15.59-5.75,15.59-14.91S228.15,411.44,217.54,411.44L217.54,411.44z M217.37,437.04h-22.16v-21.38h22.16   c7.54,0,11.42,3.24,11.42,10.69S224.91,437.04,217.37,437.04L217.37,437.04z"/>
	<path class="st0" d="M390.41,411.33V406h11.33c-2.48-3.69-6.69-6.11-11.47-6.11c-7.63,0-13.81,6.19-13.81,13.81   c0,4.25,1.92,8.05,4.94,10.59v-9.59h5.63v12.41c1.04,0.26,2.12,0.4,3.24,0.4c1.24,0,2.43-0.17,3.57-0.48V414.7h5.63v9.29   c2.83-2.53,4.61-6.2,4.61-10.29c0-0.81-0.09-1.6-0.22-2.37H390.41L390.41,411.33z M387.2,408.58c0,1.65-1.34,2.99-3,2.99   c-1.66,0-3-1.34-3-2.99c0-1.66,1.34-3,3-3C385.86,405.58,387.2,406.91,387.2,408.58L387.2,408.58z"/>
</g>
</svg>