<?xml version="1.0" encoding="UTF-8" standalone="no"?>
<!-- Created with Inkscape (http://www.inkscape.org/) -->

<svg
   version="1.1"
   id="svg2"
   width="1122.52"
   height="793.70667"
   viewBox="0 0 1122.52 793.70667"
   sodipodi:docname="Dream_IT_Neg.eps"
   xmlns:inkscape="http://www.inkscape.org/namespaces/inkscape"
   xmlns:sodipodi="http://sodipodi.sourceforge.net/DTD/sodipodi-0.dtd"
   xmlns="http://www.w3.org/2000/svg"
   xmlns:svg="http://www.w3.org/2000/svg">
  <defs
     id="defs6" />
  <sodipodi:namedview
     id="namedview4"
     pagecolor="#ffffff"
     bordercolor="#000000"
     borderopacity="0.25"
     inkscape:showpageshadow="2"
     inkscape:pageopacity="0.0"
     inkscape:pagecheckerboard="0"
     inkscape:deskcolor="#d1d1d1" />
  <g
     id="g8"
     inkscape:groupmode="layer"
     inkscape:label="ink_ext_XXXXXX"
     transform="matrix(1.3333333,0,0,-1.3333333,0,793.70667)">
    <g
       id="g10"
       transform="scale(0.1)">
      <path
         d="m 3772.24,2811.72 v -42.17 h 383.25 v 42.17 z m 372.18,87.76 v 42.17 h -361.95 v -42.17 z m 9.79,168.27 h -381.97 v -42.18 h 381.97 z m 396.26,-298.2 -143.99,298.2 h -46 l -143.99,-298.2 h 48.56 l 118.43,252.19 118,-252.19 z m 502.42,298.2 -189.57,-262.42 -189.57,262.42 h -54.53 v -298.2 h 42.18 v 243.24 l 175.51,-243.24 h 52.4 l 175.94,243.24 v -243.24 h 41.74 v 298.2 h -54.1"
         style="fill:#ffffff;fill-opacity:1;fill-rule:nonzero;stroke:none"
         id="path12" />
      <path
         d="m 3724,2769.55 -74.98,118 c 37.49,12.35 60.07,40.9 60.07,86.48 0,63.47 -43.88,93.72 -108.63,93.72 h -202.18 v -42.18 h 202.18 c 41.75,0 65.18,-17.04 65.18,-51.54 0,-34.08 -23.43,-51.12 -65.18,-51.12 h -125.65 v -42.18 h 125.65 c 0.85,0 2.13,0 3.41,0 l 70.29,-111.18 H 3724"
         style="fill:#ffffff;fill-opacity:1;fill-rule:nonzero;stroke:none"
         id="path14" />
      <path
         d="m 3047,2899.48 h 141.9 v 42.17 H 3047 Z m 147.43,168.27 H 2929 v -298.2 h 265.43 c 106.08,0 155.92,57.51 155.92,149.1 0,91.59 -49.84,149.1 -155.92,149.1 z m -1.7,-256.03 h -221.56 v 213.85 h 221.56 c 75.4,0 114.17,-32.37 114.17,-106.92 0,-74.55 -38.77,-106.93 -114.17,-106.93"
         style="fill:#ffffff;fill-opacity:1;fill-rule:nonzero;stroke:none"
         id="path16" />
      <path
         d="m 5358,3068.85 v 53.28 h 113.35 c -24.81,36.88 -66.9,61.1 -114.66,61.1 -76.29,0 -138.13,-61.88 -138.13,-138.13 0,-42.5 19.22,-80.47 49.4,-105.86 v 95.86 h 56.33 v -124.14 c 10.41,-2.58 21.22,-3.98 32.4,-3.98 12.36,0 24.27,1.72 35.67,4.76 v 123.36 h 56.33 v -92.89 c 28.25,25.32 46.14,62.03 46.14,102.89 0,8.13 -0.85,16.02 -2.2,23.75 z m -32.11,27.5 c 0,-16.48 -13.43,-29.92 -29.99,-29.92 -16.55,0 -29.98,13.44 -29.98,29.92 0,16.64 13.43,30 29.98,30 16.56,0 29.99,-13.36 29.99,-30"
         style="fill:#ffffff;fill-opacity:1;fill-rule:nonzero;stroke:none"
         id="path18" />
    </g>
  </g>
</svg>
