<svg width="108" height="190" viewBox="0 0 108 190" fill="none" xmlns="http://www.w3.org/2000/svg">
<path fill-rule="evenodd" clip-rule="evenodd" d="M29.9617 0L4.78157 37.3043C-7.60394 53.6555 5.68482 77.037 26.173 74.6107L26.1777 74.6102L107.332 65.0241L104.779 43.3863C104.779 43.3863 24.3012 52.8921 23.6135 52.9737C22.9258 53.0553 22.3856 52.7765 22.0452 52.1699C21.7042 51.5622 21.8555 50.8223 22.1778 50.4112C22.5 50 48.0078 12.1943 48.0078 12.1943L29.9617 0ZM92.1351 119.752L57.74 90.7385C42.8074 76.6796 18.1579 87.4157 18.3905 108.057L18.3906 108.062L19.2875 189.819L41.0624 189.578L40.1653 107.81L40.1649 107.77C40.1567 107.087 40.1476 106.328 41 106C41.7964 105.693 42.3927 106.23 42.7675 106.567C42.8017 106.598 42.8341 106.627 42.8646 106.653C43.2293 106.972 78.0975 136.411 78.0975 136.411L92.1351 119.752Z" fill="#FF4135"/>
</svg>
