<svg xmlns="http://www.w3.org/2000/svg" width="67" height="19" viewBox="0 0 67 19" fill="none">
    <g clip-path="url(#clip0_196_1076)">
    <path d="M0 11.94C0 7.91677 2.40909 4.87988 6.39914 4.87988C9.98768 4.87988 12.0454 6.98234 12.447 10.0192H9.28503C8.98389 8.51376 7.95501 7.60529 6.39914 7.60529C4.2661 7.60529 3.21212 9.34436 3.21212 11.94C3.21212 14.5356 4.2661 16.2747 6.39914 16.2747C8.0052 16.2747 9.00899 15.3143 9.28503 13.705H12.447C12.0705 16.8198 9.9124 19.0001 6.39914 19.0001C2.40909 19.0001 0 15.9632 0 11.94Z" fill="#1F1C1A"/>
    <path d="M13.3281 5.19138H16.3897V7.60532C17.268 5.71051 18.6733 5.03564 20.3295 5.03564H21.3584V8.04657H20.2041C17.9957 8.04657 16.4901 9.00696 16.4901 12.1477V18.6887H13.3281V5.19138Z" fill="#1F1C1A"/>
    <path d="M31.1508 17.1312C30.0215 18.5329 28.6413 19.0001 27.0102 19.0001C24.1745 19.0001 22.2422 17.5465 22.2422 14.925C22.2422 12.537 23.8733 11.343 27.2611 10.746L31.0504 10.0452V9.2665C31.0504 8.04655 30.3478 7.39764 28.6664 7.39764C27.236 7.39764 26.0315 8.02059 25.9562 9.5001H22.8445C22.8947 6.28152 25.5045 4.87988 28.6413 4.87988C32.3553 4.87988 34.1371 6.43726 34.1371 8.90311V18.6886H31.1508V17.1312ZM27.7128 16.5862C29.3691 16.5862 31.0504 15.6777 31.0504 13.4455V12.2515L27.8383 12.9263C26.3577 13.2378 25.4794 13.6012 25.4794 14.8211C25.4794 15.8853 26.1821 16.5862 27.7128 16.5862Z" fill="#1F1C1A"/>
    <path d="M40.9148 0H43.7505V2.51776H41.6928C40.7643 2.51776 40.438 2.9071 40.438 3.78962V5.19126H43.7505V7.70902H40.438V18.6885H37.3012V7.70902H35.0176V5.19126H37.3012V3.45219C37.3012 0.726776 38.7065 0 40.9148 0Z" fill="#1F1C1A"/>
    <path d="M50.0533 1.03809V5.19109H53.3658V7.70885H50.0533V14.8987C50.0533 15.7813 50.3795 16.1706 51.308 16.1706H53.3658V18.6884H50.5301C48.3217 18.6884 46.9164 17.9616 46.9164 15.2362V7.70885H44.6328V5.19109H46.9164V1.03809H50.0533Z" fill="#1F1C1A"/>
    <path d="M54.25 0H57.4119V3.03689H54.25V0ZM54.25 5.19126H57.3868V18.6885H54.25V5.19126Z" fill="#1F1C1A"/>
    <path d="M63.688 1.03809V5.19109H67.0005V7.70885H63.688V14.8987C63.688 15.7813 64.0143 16.1706 64.9428 16.1706H67.0005V18.6884H64.1648C61.9565 18.6884 60.5512 17.9616 60.5512 15.2362V7.70885H58.2676V5.19109H60.5512V1.03809H63.688Z" fill="#1F1C1A"/>
    </g>
    <defs>
        <clipPath id="clip0_196_1076">
            <rect width="67" height="19" fill="white"/>
        </clipPath>
    </defs>
</svg>